<svg width="31" height="31" viewBox="0 0 31 31" fill="none" xmlns="http://www.w3.org/2000/svg">
<path d="M25.1198 4.38757L25.1118 4.19411C25.1447 4.21858 25.1776 4.24319 25.2103 4.26793L25.1198 4.38757ZM25.1198 4.38757C25.0684 4.34871 25.0168 4.31018 24.9649 4.272L24.9699 4.39372L25.1198 4.38757ZM23.9678 5.87316L24.3913 5.85833L24.0527 5.60342C18.9789 1.78324 11.4923 1.84664 6.48675 6.03227C2.80814 9.10627 1.25241 13.7924 2.41817 18.2571L2.41851 18.2583C2.51636 18.6201 2.27431 19.0072 1.8516 19.1048L1.8516 19.1048L1.84871 19.1055C1.78793 19.1209 1.73217 19.1263 1.66625 19.1263C1.30738 19.1263 0.99749 18.9042 0.914308 18.5863L0.914289 18.5862C-0.384996 13.6317 1.34594 8.42366 5.43978 4.99634L5.43984 4.99629C8.41605 2.50196 12.2752 1.22838 16.2929 1.41659L16.2929 1.41659C19.5373 1.56718 22.5688 2.64619 25.0293 4.5072L25.2827 4.69886L25.2697 4.38141L25.1259 0.880783L25.1258 0.880455C25.1094 0.500875 25.4287 0.166984 25.8717 0.150602L25.8718 0.150599C26.3067 0.134302 26.6584 0.447967 26.675 0.83004C26.675 0.830067 26.675 0.830094 26.675 0.830121L26.9009 6.40997V6.41325V6.41332V6.41339V6.41347V6.41354V6.41362V6.41369V6.41376V6.41384V6.41391V6.41398V6.41405V6.41413V6.4142V6.41427V6.41434V6.41441V6.41449V6.41456V6.41463V6.4147V6.41477V6.41484V6.41492V6.41499V6.41506V6.41513V6.4152V6.41527V6.41534V6.41541V6.41548V6.41555V6.41562V6.41569V6.41576V6.41583V6.4159V6.41597V6.41603V6.4161V6.41617V6.41624V6.41631V6.41638V6.41645V6.41651V6.41658V6.41665V6.41672V6.41679V6.41685V6.41692V6.41699V6.41706V6.41712V6.41719V6.41726V6.41732V6.41739V6.41746V6.41752V6.41759V6.41766V6.41772V6.41779V6.41785V6.41792V6.41799V6.41805V6.41812V6.41818V6.41825V6.41831V6.41838V6.41844V6.41851V6.41857V6.41864V6.4187V6.41877V6.41883V6.41889V6.41896V6.41902V6.41909V6.41915V6.41921V6.41928V6.41934V6.4194V6.41947V6.41953V6.41959V6.41966V6.41972V6.41978V6.41985V6.41991V6.41997V6.42003V6.4201V6.42016V6.42022V6.42028V6.42035V6.42041V6.42047V6.42053V6.42059V6.42066V6.42072V6.42078V6.42084V6.4209V6.42096V6.42102V6.42108V6.42115V6.42121V6.42127V6.42133V6.42139V6.42145V6.42151V6.42157V6.42163V6.42169V6.42175V6.42181V6.42187V6.42193V6.42199V6.42205V6.42211V6.42217V6.42223V6.42229V6.42235V6.42241V6.42247V6.42253V6.42259V6.42265V6.42271V6.42277V6.42283V6.42289V6.42294V6.423V6.42306V6.42312V6.42318V6.42324V6.4233V6.42336V6.42341V6.42347V6.42353V6.42359V6.42365V6.42371V6.42376V6.42382V6.42388V6.42394V6.424V6.42405V6.42411V6.42417V6.42423V6.42428V6.42434V6.4244V6.42446V6.42452V6.42457V6.42463V6.42469V6.42474V6.4248V6.42486V6.42492V6.42497V6.42503V6.42509V6.42515V6.4252V6.42526V6.42532V6.42537V6.42543V6.42549V6.42554V6.4256V6.42566V6.42571V6.42577V6.42583V6.42588V6.42594V6.426V6.42605V6.42611V6.42617V6.42622V6.42628V6.42633V6.42639V6.42645V6.4265V6.42656V6.42662V6.42667V6.42673V6.42678V6.42684V6.4269V6.42695V6.42701V6.42706V6.42712V6.42718V6.42723V6.42729V6.42734V6.4274V6.42746V6.42751V6.42757V6.42762V6.42768V6.42774V6.42779V6.42785V6.4279V6.42796V6.42801V6.42807V6.42813V6.42818V6.42824V6.42829V6.42835V6.4284V6.42846V6.42852V6.42857V6.42863V6.42868V6.42874V6.42879V6.42885V6.42891V6.42896V6.42902V6.42907V6.42913V6.42918V6.42924V6.42929V6.42935V6.42941V6.42946V6.42952V6.42957V6.42963V6.42968V6.42974V6.4298V6.42985V6.42991V6.42996V6.43002V6.43007V6.43013V6.43019V6.43024V6.4303V6.43035V6.43041V6.43046V6.43052V6.43058V6.43063V6.43069V6.43074V6.4308V6.43086V6.43091V6.43097V6.43102V6.43108V6.43114V6.43119V6.43125V6.4313V6.43136V6.43142V6.43147V6.43153V6.43158V6.43164V6.4317V6.43175V6.43181V6.43187V6.43192V6.43198V6.43203V6.43209V6.43215V6.4322V6.43226V6.43232V6.43237V6.43243V6.43249V6.43254V6.4326V6.43266V6.43271V6.43277V6.43283V6.43288V6.43294V6.433V6.43306V6.43311V6.43317V6.43323V6.43328V6.43334V6.4334V6.43346V6.43351V6.43357V6.43363V6.43369V6.43374V6.4338V6.43386V6.43392V6.43397V6.43403V6.43409V6.43415V6.43421V6.43426V6.43432V6.43438V6.43444V6.4345V6.43456V6.43461V6.43467V6.43473V6.43479V6.43485V6.43491V6.43496V6.43502V6.43508V6.43514V6.4352V6.43526V6.43532V6.43538V6.43544V6.43549V6.43555V6.43561V6.43567V6.43573V6.43579V6.43585V6.43591V6.43597V6.43603V6.43609V6.43615V6.43621V6.43627V6.43633V6.43639V6.43645V6.43651V6.43657V6.43663V6.43669V6.43675V6.43682V6.43688V6.43694V6.437V6.43706V6.43712V6.43718V6.43724V6.4373V6.43737V6.43743V6.43749V6.43755V6.43761V6.43767V6.43774V6.4378V6.43786V6.43792V6.43798V6.43805V6.43811V6.43817V6.43823V6.4383V6.43836V6.43842V6.43849V6.43855V6.43861V6.43868V6.43874V6.4388V6.43887V6.43893V6.43899V6.43906V6.43912V6.43919V6.43925V6.43931V6.43938V6.43944V6.43951V6.43957V6.43964V6.4397V6.43977V6.43983V6.4399V6.43996V6.44003V6.44009V6.44016V6.44022V6.44029V6.44036V6.44042V6.44049V6.44055V6.44062V6.44069V6.44075V6.44082V6.44089V6.44095V6.44102V6.44109V6.44116V6.44122V6.44129V6.44136V6.44143V6.44149V6.44156V6.44163V6.4417V6.44177V6.44183V6.4419V6.44197V6.44204V6.44211V6.44218V6.44225V6.44232V6.44239V6.44246V6.44252V6.4426V6.44266V6.44273V6.4428V6.44288V6.44295V6.44302V6.44309V6.44316V6.44323V6.4433V6.44337V6.44344V6.44351V6.44359V6.44366V6.44373V6.4438V6.44387V6.44395V6.44402V6.44409V6.44416V6.44424V6.44431V6.44438V6.44446V6.44453V6.4446V6.44468V6.44475V6.44482V6.4449V6.5082C26.9009 6.87876 26.5857 7.1964 26.1552 7.21288C26.1551 7.21288 26.155 7.21289 26.1549 7.21289L20.0507 7.42168H20.0506H20.0506H20.0505H20.0504H20.0503H20.0503H20.0502H20.0501H20.05H20.05H20.0499H20.0498H20.0497H20.0497H20.0496H20.0495H20.0494H20.0494H20.0493H20.0492H20.0491H20.0491H20.049H20.0489H20.0488H20.0488H20.0487H20.0486H20.0485H20.0485H20.0484H20.0483H20.0483H20.0482H20.0481H20.048H20.048H20.0479H20.0478H20.0478H20.0477H20.0476H20.0475H20.0475H20.0474H20.0473H20.0473H20.0472H20.0471H20.047H20.047H20.0469H20.0468H20.0468H20.0467H20.0466H20.0466H20.0465H20.0464H20.0463H20.0463H20.0462H20.0461H20.0461H20.046H20.0459H20.0459H20.0458H20.0457H20.0457H20.0456H20.0455H20.0454H20.0454H20.0453H20.0452H20.0452H20.0451H20.045H20.045H20.0449H20.0448H20.0448H20.0447H20.0446H20.0446H20.0445H20.0444H20.0444H20.0443H20.0442H20.0442H20.0441H20.044H20.044H20.0439H20.0438H20.0438H20.0437H20.0436H20.0436H20.0435H20.0434H20.0434H20.0433H20.0433H20.0432H20.0431H20.0431H20.043H20.0429H20.0429H20.0428H20.0427H20.0427H20.0426H20.0425H20.0425H20.0424H20.0423H20.0423H20.0422H20.0422H20.0421H20.042H20.042H20.0419H20.0418H20.0418H20.0417H20.0416H20.0416H20.0415H20.0415H20.0414H20.0413H20.0413H20.0412H20.0411H20.0411H20.041H20.0409H20.0409H20.0408H20.0408H20.0407H20.0406H20.0406H20.0405H20.0404H20.0404H20.0403H20.0403H20.0402H20.0401H20.0401H20.04H20.04H20.0399H20.0398H20.0398H20.0397H20.0396H20.0396H20.0395H20.0395H20.0394H20.0393H20.0393H20.0392H20.0392H20.0391H20.039H20.039H20.0389H20.0388H20.0388H20.0387H20.0387H20.0386H20.0385H20.0385H20.0384H20.0384H20.0383H20.0382H20.0382H20.0381H20.038H20.038H20.0379H20.0379H20.0378H20.0377H20.0377H20.0376H20.0376H20.0375H20.0374H20.0374H20.0373H20.0373H20.0372H20.0371H20.0371H20.037H20.037H20.0369H20.0368H20.0368H20.0367H20.0367H20.0366H20.0365H20.0365H20.0364H20.0364H20.0363H20.0362H20.0362H20.0361H20.0361H20.036H20.0359H20.0359H20.0358H20.0358H20.0357H20.0356H20.0356H20.0355H20.0355H20.0354H20.0353H20.0353H20.0352H20.0352H20.0351H20.035H20.035H20.0349H20.0349H20.0348H20.0347H20.0347H20.0346H20.0345H20.0345H20.0344H20.0344H20.0343H20.0342H20.0342H20.0341H20.0341H20.034H20.0339H20.0339H20.0338H20.0338H20.0337H20.0336H20.0336H20.0335H20.0335H20.0334H20.0333H20.0333H20.0332H20.0332H20.0331H20.033H20.033H20.0329H20.0329H20.0328H20.0327H20.0327H20.0326H20.0326H20.0325H20.0324H20.0324H20.0323H20.0322H20.0322H20.0321H20.0321H20.032H20.0319H20.0319H20.0318H20.0318H20.0317H20.0316H20.0316H20.0315H20.0315H20.0314H20.0313H20.0313H20.0312H20.0311H20.0311H20.031H20.031H20.0309H20.0308H20.0308H20.0307H20.0307H20.0306H20.0305H20.0305H20.0304H20.0303H20.0303H20.0302H20.0302H20.0301H20.03H20.03H20.0299H20.0298H20.0298H20.0297H20.0297H20.0296H20.0295H20.0295H20.0294H20.0293H20.0293H20.0292H20.0291H20.0291H20.029H20.029H20.0289H20.0288H20.0288H20.0287H20.0286H20.0286H20.0285H20.0284H20.0284H20.0283H20.0283H20.0282H20.0281H20.0281H20.028H20.0279H20.0279H20.0278H20.0277H20.0277H20.0276H20.0275H20.0275H20.0274H20.0273H20.0273H20.0272H20.0272H20.0271H20.027H20.027H20.0269H20.0268H20.0268H20.0267H20.0266H20.0266H20.0265H20.0264H20.0264H20.0263H20.0262H20.0262H20.0261H20.026H20.026H20.0259H20.0258H20.0258H20.0257H20.0256H20.0256H20.0255H20.0254H20.0254H20.0253H20.0252H20.0251H20.0251H20.025H20.0249H20.0249H20.0248H20.0247H20.0247H20.0246H20.0245H20.0245H20.0244H20.0243H20.0243H20.0242H20.0241H20.024H20.024H20.0239H20.0238H20.0238H20.0237H20.0236H20.0236H20.0235H20.0234H20.0233H20.0233H20.0232H20.0231H20.0231H20.023H20.0229H20.0228H20.0228H20.0227H20.0226H20.0226H20.0225H20.0224H20.0223H20.0223H20.0222H20.0221H20.022H20.022H20.0219H20.0218H20.0217H20.0217H20.0216H20.0215H20.0215H20.0214H20.0213H20.0212H20.0212H20.0211H20.021H20.0209H20.0209H20.0208H20.0207H20.0206H20.0206H20.0205H20.0204H20.0203H20.0202H20.0202H20.0201H20.02H20.0199H20.0199H20.0198H20.0197H20.0196H20.0196H20.0195H20.0194H20.0193H20.0192H20.0192H20.0191H20.019H20.0189H20.0189H20.0188H20.0187H20.0186H20.0185H20.0185H20.0184H20.0183H20.0182C19.5947 7.42168 19.2601 7.11376 19.2436 6.74209C19.2273 6.3626 19.5465 6.02883 19.9894 6.01241C19.9895 6.01241 19.9895 6.01241 19.9895 6.01241L23.9678 5.87316Z" fill="#2B2A28" stroke="#FFFBF7" stroke-width="0.3"/>
<path d="M4.1998 24.5938L4.19967 24.5938L4.1998 24.5938ZM28.9213 12.7435L28.921 12.7424C28.8232 12.3806 29.0652 11.9936 29.4879 11.8959C29.9094 11.7985 30.3248 12.0444 30.4254 12.4151C31.7244 17.3757 29.9935 22.5771 25.8999 26.0042C23.1065 28.3359 19.5525 29.603 15.8135 29.603C15.5625 29.603 15.3048 29.5967 15.0469 29.5842L15.0467 29.5841C11.8229 29.4336 8.80472 28.3609 6.3439 26.5184L6.07226 26.315L6.10468 26.6528L6.43337 30.0775L6.43344 30.0782C6.47177 30.4578 6.17009 30.8061 5.73419 30.8443L5.72372 30.8452L5.71349 30.8475C5.70543 30.8494 5.69509 30.85 5.66509 30.85C5.25936 30.85 4.92984 30.5633 4.89685 30.2076L4.89678 30.2069L4.34897 24.5793L4.34891 24.5787C4.31059 24.1992 4.61217 23.8509 5.04797 23.8127C5.04803 23.8127 5.0481 23.8127 5.04816 23.8127L11.1352 23.3063L11.1356 23.3063C11.5782 23.2681 11.9415 23.5613 11.9801 23.9442C12.0184 24.3238 11.7168 24.6721 11.281 24.7102C11.281 24.7102 11.2809 24.7102 11.2809 24.7103L7.25501 25.0457L6.86903 25.0779L7.17598 25.3141C9.65551 27.222 12.7286 28.1875 15.8066 28.1875C19.0301 28.1875 22.2695 27.126 24.8528 24.9685L24.8528 24.9685C28.5313 21.8946 30.0941 17.2084 28.9213 12.7435Z" fill="#2B2A28" stroke="#FFFBF7" stroke-width="0.3"/>
</svg>
