<svg width="24" height="24" viewBox="0 0 24 24" fill="none" xmlns="http://www.w3.org/2000/svg">
<path fill-rule="evenodd" clip-rule="evenodd" d="M11.75 1C5.81294 1 1 5.81294 1 11.75C1 17.6871 5.81294 22.5 11.75 22.5C17.6871 22.5 22.5 17.6871 22.5 11.75C22.5 5.81294 17.6871 1 11.75 1ZM0 11.75C0 5.26065 5.26065 0 11.75 0C18.2393 0 23.5 5.26065 23.5 11.75C23.5 18.2393 18.2393 23.5 11.75 23.5C5.26065 23.5 0 18.2393 0 11.75Z" fill="#2B2A28"/>
<path fill-rule="evenodd" clip-rule="evenodd" d="M11.75 4.6875C12.0261 4.6875 12.25 4.91136 12.25 5.1875V11.25H18.3125C18.5886 11.25 18.8125 11.4739 18.8125 11.75C18.8125 12.0261 18.5886 12.25 18.3125 12.25H11.75C11.4739 12.25 11.25 12.0261 11.25 11.75V5.1875C11.25 4.91136 11.4739 4.6875 11.75 4.6875Z" fill="#2B2A28"/>
</svg>
