<svg width="21" height="21" viewBox="0 0 21 21" fill="none" xmlns="http://www.w3.org/2000/svg">
<path fill-rule="evenodd" clip-rule="evenodd" d="M1.4375 1C1.19588 1 1 1.19588 1 1.4375V19.25C1 19.4916 1.19588 19.6875 1.4375 19.6875H19.25C19.4916 19.6875 19.6875 19.4916 19.6875 19.25V1.4375C19.6875 1.19588 19.4916 1 19.25 1H1.4375ZM0 1.4375C0 0.643591 0.643591 0 1.4375 0H19.25C20.0439 0 20.6875 0.643591 20.6875 1.4375V19.25C20.6875 20.0439 20.0439 20.6875 19.25 20.6875H1.4375C0.643591 20.6875 0 20.0439 0 19.25V1.4375Z" fill="#2B2A28"/>
<path fill-rule="evenodd" clip-rule="evenodd" d="M10.3438 0C10.6199 0 10.8438 0.223858 10.8438 0.5V20.1875C10.8438 20.4636 10.6199 20.6875 10.3438 20.6875C10.0676 20.6875 9.84375 20.4636 9.84375 20.1875V0.5C9.84375 0.223858 10.0676 0 10.3438 0Z" fill="#2B2A28"/>
<path fill-rule="evenodd" clip-rule="evenodd" d="M11.396 0.146447C11.5912 -0.0488155 11.9078 -0.0488155 12.1031 0.146447L20.5413 8.58463C20.7365 8.7799 20.7365 9.09648 20.5413 9.29174C20.346 9.487 20.0294 9.487 19.8341 9.29174L11.396 0.853553C11.2007 0.658291 11.2007 0.341709 11.396 0.146447Z" fill="#2B2A28"/>
<path fill-rule="evenodd" clip-rule="evenodd" d="M9.9902 5.30343C10.1855 5.10817 10.502 5.10817 10.6973 5.30343L20.5411 15.1472C20.7363 15.3424 20.7363 15.659 20.5411 15.8543C20.3458 16.0496 20.0292 16.0496 19.8339 15.8543L9.9902 6.01054C9.79493 5.81527 9.79493 5.49869 9.9902 5.30343Z" fill="#2B2A28"/>
<path fill-rule="evenodd" clip-rule="evenodd" d="M9.9902 11.8659C10.1855 11.6707 10.502 11.6707 10.6973 11.8659L18.6654 19.834C18.8606 20.0293 18.8606 20.3458 18.6654 20.5411C18.4701 20.7364 18.1535 20.7364 17.9583 20.5411L9.9902 12.573C9.79493 12.3778 9.79493 12.0612 9.9902 11.8659Z" fill="#2B2A28"/>
</svg>
