<svg width="32" height="32" viewBox="0 0 32 32" fill="none" xmlns="http://www.w3.org/2000/svg">
<rect width="32" height="32" fill="white"/>
<path d="M27.3793 18.1428C27.4529 18.2165 27.5529 18.2579 27.6571 18.2579C27.7613 18.2579 27.8612 18.2165 27.9349 18.1428C28.0085 18.0692 28.0499 17.9692 28.0499 17.865V16.8468C28.0499 16.7426 28.0085 16.6426 27.9349 16.569C27.8612 16.4953 27.7613 16.4539 27.6571 16.4539C27.5529 16.4539 27.4529 16.4953 27.3793 16.569C27.3056 16.6426 27.2642 16.7426 27.2642 16.8468V17.865C27.2642 17.9692 27.3056 18.0692 27.3793 18.1428Z" fill="#2B2A28" stroke="#2B2A28" stroke-width="0.1"/>
<path d="M5.37143 28.05H26.6286C27.0056 28.05 27.3671 27.9002 27.6337 27.6337C27.9002 27.3671 28.05 27.0056 28.05 26.6286V20.2651C28.05 20.161 28.0086 20.061 27.9349 19.9874C27.8613 19.9137 27.7613 19.8723 27.6571 19.8723C27.5529 19.8723 27.453 19.9137 27.3794 19.9874C27.3057 20.061 27.2643 20.161 27.2643 20.2651V26.6286C27.2643 26.7972 27.1973 26.9589 27.0781 27.0781C26.9589 27.1973 26.7972 27.2643 26.6286 27.2643H5.37143C5.20283 27.2643 5.04113 27.1973 4.92191 27.0781C4.80269 26.9589 4.73571 26.7972 4.73571 26.6286V5.37143C4.73571 5.20283 4.80269 5.04113 4.92191 4.92191C5.04113 4.80269 5.20283 4.73571 5.37143 4.73571H26.6286C26.7972 4.73571 26.9589 4.80269 27.0781 4.92191C27.1973 5.04113 27.2643 5.20283 27.2643 5.37143V11.0491C27.2643 11.1533 27.3057 11.2533 27.3794 11.3269C27.453 11.4006 27.553 11.442 27.6571 11.442C27.7613 11.442 27.8613 11.4006 27.9349 11.3269C28.0086 11.2533 28.05 11.1533 28.05 11.0491V5.37143C28.05 4.99444 27.9002 4.6329 27.6337 4.36633C27.3671 4.09976 27.0056 3.95 26.6286 3.95H5.37143C4.99444 3.95 4.6329 4.09976 4.36633 4.36633C4.09976 4.6329 3.95 4.99444 3.95 5.37143V26.6286C3.95 27.0056 4.09976 27.3671 4.36633 27.6337C4.6329 27.9002 4.99444 28.05 5.37143 28.05Z" fill="#2B2A28" stroke="#2B2A28" stroke-width="0.1"/>
<path d="M27.3793 14.7248C27.4529 14.7985 27.5529 14.8399 27.6571 14.8399C27.7613 14.8399 27.8612 14.7985 27.9349 14.7248C28.0085 14.6511 28.0499 14.5512 28.0499 14.447V13.4493C28.0499 13.3451 28.0085 13.2452 27.9349 13.1715C27.8612 13.0978 27.7613 13.0564 27.6571 13.0564C27.5529 13.0564 27.4529 13.0978 27.3793 13.1715C27.3056 13.2452 27.2642 13.3451 27.2642 13.4493V14.447C27.2642 14.5512 27.3056 14.6511 27.3793 14.7248Z" fill="#2B2A28" stroke="#2B2A28" stroke-width="0.1"/>
<mask id="path-5-outside-1_131_178" maskUnits="userSpaceOnUse" x="15.5858" y="7.0951" width="11.3137" height="11.3137" fill="black">
<rect fill="white" x="15.5858" y="7.0951" width="11.3137" height="11.3137"/>
<path fill-rule="evenodd" clip-rule="evenodd" d="M23.9974 11.0736C24.0884 11.0736 24.1756 11.0375 24.2399 10.9732C24.3042 10.9089 24.3403 10.8217 24.3403 10.7308C24.3403 10.6398 24.3042 10.5526 24.2399 10.4883L21.9942 8.24263C21.9299 8.17834 21.8427 8.14221 21.7518 8.14221C21.6608 8.14221 21.5736 8.17834 21.5093 8.24263L19.2636 10.4883C19.1993 10.5526 19.1632 10.6398 19.1632 10.7308C19.1632 10.8217 19.1993 10.9089 19.2636 10.9732C19.3279 11.0375 19.4151 11.0736 19.5061 11.0736C19.597 11.0736 19.6842 11.0375 19.7485 10.9732L21.4089 9.31276L21.4089 17.0189C21.409 17.0867 21.4291 17.153 21.4667 17.2094C21.5044 17.2657 21.5579 17.3097 21.6206 17.3356C21.6832 17.3616 21.7521 17.3684 21.8186 17.3552C21.8851 17.3419 21.9462 17.3093 21.9942 17.2614C22.0585 17.1971 22.0946 17.1099 22.0946 17.0189L22.0946 9.31274L23.755 10.9732C23.8193 11.0375 23.9065 11.0736 23.9974 11.0736Z"/>
</mask>
<path fill-rule="evenodd" clip-rule="evenodd" d="M23.9974 11.0736C24.0884 11.0736 24.1756 11.0375 24.2399 10.9732C24.3042 10.9089 24.3403 10.8217 24.3403 10.7308C24.3403 10.6398 24.3042 10.5526 24.2399 10.4883L21.9942 8.24263C21.9299 8.17834 21.8427 8.14221 21.7518 8.14221C21.6608 8.14221 21.5736 8.17834 21.5093 8.24263L19.2636 10.4883C19.1993 10.5526 19.1632 10.6398 19.1632 10.7308C19.1632 10.8217 19.1993 10.9089 19.2636 10.9732C19.3279 11.0375 19.4151 11.0736 19.5061 11.0736C19.597 11.0736 19.6842 11.0375 19.7485 10.9732L21.4089 9.31276L21.4089 17.0189C21.409 17.0867 21.4291 17.153 21.4667 17.2094C21.5044 17.2657 21.5579 17.3097 21.6206 17.3356C21.6832 17.3616 21.7521 17.3684 21.8186 17.3552C21.8851 17.3419 21.9462 17.3093 21.9942 17.2614C22.0585 17.1971 22.0946 17.1099 22.0946 17.0189L22.0946 9.31274L23.755 10.9732C23.8193 11.0375 23.9065 11.0736 23.9974 11.0736Z" fill="#2B2A28"/>
<path d="M24.3403 10.7308L24.2403 10.7308L24.2403 10.7308H24.3403ZM21.7518 8.14221V8.24221L21.7518 8.24221L21.7518 8.14221ZM19.5061 11.0736V10.9736V11.0736ZM21.4089 9.31276H21.5089L21.5089 9.07134L21.3382 9.24205L21.4089 9.31276ZM21.4089 17.0189L21.3089 17.0189L21.3089 17.0189L21.4089 17.0189ZM21.4667 17.2094L21.5499 17.1538L21.5499 17.1538L21.4667 17.2094ZM21.6206 17.3356L21.5823 17.428L21.5823 17.428L21.6206 17.3356ZM21.8186 17.3552L21.7991 17.2571L21.7991 17.2571L21.8186 17.3552ZM21.9942 17.2614L22.0649 17.3321L22.0649 17.3321L21.9942 17.2614ZM22.0946 17.0189H21.9946L21.9946 17.0189L22.0946 17.0189ZM22.0946 9.31274L22.1653 9.24203L21.9946 9.07132L21.9946 9.31274H22.0946ZM24.1692 10.9025C24.1236 10.948 24.0619 10.9736 23.9974 10.9736V11.1736C24.1149 11.1736 24.2275 11.127 24.3106 11.0439L24.1692 10.9025ZM24.2403 10.7308C24.2403 10.7952 24.2147 10.8569 24.1692 10.9025L24.3106 11.0439C24.3936 10.9609 24.4403 10.8482 24.4403 10.7308H24.2403ZM24.1692 10.559C24.2147 10.6046 24.2403 10.6664 24.2403 10.7308L24.4403 10.7308C24.4403 10.6133 24.3936 10.5007 24.3106 10.4176L24.1692 10.559ZM21.9235 8.31334L24.1692 10.559L24.3106 10.4176L22.0649 8.17192L21.9235 8.31334ZM21.7518 8.24221C21.8162 8.24221 21.8779 8.2678 21.9235 8.31334L22.0649 8.17192C21.9819 8.08887 21.8692 8.04221 21.7518 8.04221L21.7518 8.24221ZM21.58 8.31334C21.6256 8.2678 21.6873 8.24221 21.7518 8.24221L21.7518 8.04221C21.6343 8.04221 21.5217 8.08887 21.4386 8.17192L21.58 8.31334ZM19.3343 10.559L21.58 8.31334L21.4386 8.17192L19.1929 10.4176L19.3343 10.559ZM19.2632 10.7308C19.2632 10.6664 19.2888 10.6046 19.3343 10.559L19.1929 10.4176C19.1099 10.5007 19.0632 10.6133 19.0632 10.7308L19.2632 10.7308ZM19.3343 10.9025C19.2888 10.8569 19.2632 10.7952 19.2632 10.7308L19.0632 10.7308C19.0632 10.8482 19.1099 10.9609 19.1929 11.0439L19.3343 10.9025ZM19.5061 10.9736C19.4417 10.9736 19.3799 10.948 19.3343 10.9025L19.1929 11.0439C19.276 11.127 19.3886 11.1736 19.5061 11.1736V10.9736ZM19.6778 10.9025C19.6322 10.948 19.5705 10.9736 19.5061 10.9736V11.1736C19.6235 11.1736 19.7362 11.127 19.8192 11.0439L19.6778 10.9025ZM21.3382 9.24205L19.6778 10.9025L19.8192 11.0439L21.4797 9.38347L21.3382 9.24205ZM21.5089 17.0189L21.5089 9.31276H21.3089L21.3089 17.0189L21.5089 17.0189ZM21.5499 17.1538C21.5232 17.1139 21.5089 17.0669 21.5089 17.0189L21.3089 17.0189C21.309 17.1065 21.3349 17.1921 21.3836 17.2649L21.5499 17.1538ZM21.6589 17.2432C21.6145 17.2249 21.5766 17.1937 21.5499 17.1538L21.3836 17.2649C21.4322 17.3378 21.5014 17.3945 21.5823 17.428L21.6589 17.2432ZM21.7991 17.2571C21.752 17.2664 21.7032 17.2616 21.6589 17.2432L21.5823 17.428C21.6632 17.4615 21.7522 17.4703 21.8381 17.4532L21.7991 17.2571ZM21.9235 17.1906C21.8895 17.2246 21.8463 17.2477 21.7991 17.2571L21.8381 17.4532C21.924 17.4362 22.0029 17.394 22.0649 17.3321L21.9235 17.1906ZM21.9946 17.0189C21.9946 17.0834 21.969 17.1451 21.9235 17.1907L22.0649 17.3321C22.1479 17.249 22.1946 17.1364 22.1946 17.0189L21.9946 17.0189ZM21.9946 9.31274L21.9946 17.0189H22.1946L22.1946 9.31274H21.9946ZM23.8257 10.9025L22.1653 9.24203L22.0238 9.38345L23.6843 11.0439L23.8257 10.9025ZM23.9974 10.9736C23.933 10.9736 23.8713 10.948 23.8257 10.9025L23.6843 11.0439C23.7674 11.127 23.88 11.1736 23.9974 11.1736V10.9736Z" fill="#2B2A28" mask="url(#path-5-outside-1_131_178)"/>
<mask id="path-7-outside-2_131_178" maskUnits="userSpaceOnUse" x="6.81531" y="15.5858" width="11.3137" height="11.3137" fill="black">
<rect fill="white" x="6.81531" y="15.5858" width="11.3137" height="11.3137"/>
<path fill-rule="evenodd" clip-rule="evenodd" d="M7.96577 21.9912C7.91784 21.9432 7.8852 21.8821 7.87199 21.8156L7.96577 21.9912ZM7.87199 21.8156C7.86786 21.7948 7.86568 21.7738 7.86543 21.7528L7.87199 21.8156ZM7.86543 21.7528C7.86541 21.7515 7.86541 21.7501 7.86541 21.7488L7.86543 21.7528ZM7.86541 21.7488C7.86541 21.7291 7.86709 21.7096 7.87044 21.6902L7.86541 21.7488ZM7.87044 21.6902C7.8715 21.6841 7.87273 21.678 7.87413 21.6719L7.87044 21.6902ZM7.87413 21.6719C7.87838 21.6534 7.88418 21.6353 7.89151 21.6176L7.87413 21.6719ZM7.89151 21.6176C7.89475 21.6097 7.89828 21.602 7.90207 21.5945L7.89151 21.6176ZM7.90207 21.5945C7.91853 21.5618 7.94008 21.5321 7.96582 21.5063L7.90207 21.5945ZM7.96583 21.5063L10.2115 19.2607C10.2434 19.2288 10.2811 19.2036 10.3227 19.1863C10.3643 19.1691 10.4089 19.1602 10.454 19.1602C10.499 19.1602 10.5436 19.1691 10.5852 19.1863C10.6268 19.2036 10.6646 19.2288 10.6964 19.2607C10.7282 19.2925 10.7535 19.3303 10.7707 19.3719C10.7879 19.4135 10.7968 19.4581 10.7968 19.5031C10.7968 19.5481 10.7879 19.5927 10.7707 19.6343C10.7535 19.6759 10.7282 19.7137 10.6964 19.7455L9.03599 21.4059L16.742 21.4059C16.8319 21.4075 16.9175 21.4443 16.9806 21.5084C17.0436 21.5725 17.0789 21.6588 17.0789 21.7487C17.0789 21.8386 17.0436 21.9249 16.9806 21.989C16.9175 22.0532 16.8319 22.09 16.742 22.0915L9.03589 22.0915L10.6964 23.752C10.7607 23.8163 10.7968 23.9035 10.7968 23.9945C10.7968 24.0854 10.7607 24.1726 10.6964 24.2369C10.6321 24.3012 10.5449 24.3373 10.454 24.3373C10.363 24.3373 10.2758 24.3012 10.2115 24.2369L7.96583 21.9912"/>
</mask>
<path fill-rule="evenodd" clip-rule="evenodd" d="M7.96577 21.9912C7.91784 21.9432 7.8852 21.8821 7.87199 21.8156L7.96577 21.9912ZM7.87199 21.8156C7.86786 21.7948 7.86568 21.7738 7.86543 21.7528L7.87199 21.8156ZM7.86543 21.7528C7.86541 21.7515 7.86541 21.7501 7.86541 21.7488L7.86543 21.7528ZM7.86541 21.7488C7.86541 21.7291 7.86709 21.7096 7.87044 21.6902L7.86541 21.7488ZM7.87044 21.6902C7.8715 21.6841 7.87273 21.678 7.87413 21.6719L7.87044 21.6902ZM7.87413 21.6719C7.87838 21.6534 7.88418 21.6353 7.89151 21.6176L7.87413 21.6719ZM7.89151 21.6176C7.89475 21.6097 7.89828 21.602 7.90207 21.5945L7.89151 21.6176ZM7.90207 21.5945C7.91853 21.5618 7.94008 21.5321 7.96582 21.5063L7.90207 21.5945ZM7.96583 21.5063L10.2115 19.2607C10.2434 19.2288 10.2811 19.2036 10.3227 19.1863C10.3643 19.1691 10.4089 19.1602 10.454 19.1602C10.499 19.1602 10.5436 19.1691 10.5852 19.1863C10.6268 19.2036 10.6646 19.2288 10.6964 19.2607C10.7282 19.2925 10.7535 19.3303 10.7707 19.3719C10.7879 19.4135 10.7968 19.4581 10.7968 19.5031C10.7968 19.5481 10.7879 19.5927 10.7707 19.6343C10.7535 19.6759 10.7282 19.7137 10.6964 19.7455L9.03599 21.4059L16.742 21.4059C16.8319 21.4075 16.9175 21.4443 16.9806 21.5084C17.0436 21.5725 17.0789 21.6588 17.0789 21.7487C17.0789 21.8386 17.0436 21.9249 16.9806 21.989C16.9175 22.0532 16.8319 22.09 16.742 22.0915L9.03589 22.0915L10.6964 23.752C10.7607 23.8163 10.7968 23.9035 10.7968 23.9945C10.7968 24.0854 10.7607 24.1726 10.6964 24.2369C10.6321 24.3012 10.5449 24.3373 10.454 24.3373C10.363 24.3373 10.2758 24.3012 10.2115 24.2369L7.96583 21.9912" fill="#2B2A28"/>
<path d="M7.87199 21.8156L7.82226 21.8208L7.82327 21.8306L7.82789 21.8392L7.87199 21.8156ZM7.86543 21.7528L7.81519 21.7531L7.8157 21.758L7.86543 21.7528ZM7.86541 21.7488L7.81538 21.7445L7.81541 21.7491L7.86541 21.7488ZM7.87044 21.6902L7.82111 21.6803L7.82063 21.6859L7.87044 21.6902ZM7.87413 21.6719L7.82621 21.6566L7.82511 21.6621L7.87413 21.6719ZM7.89151 21.6176L7.84572 21.5966L7.84388 21.6023L7.89151 21.6176ZM7.90207 21.5945L7.86076 21.5646L7.85662 21.5737L7.90207 21.5945ZM8.00987 21.9676L7.91609 21.7921L7.82789 21.8392L7.92167 22.0147L8.00987 21.9676ZM7.92172 21.8104L7.91516 21.7476L7.8157 21.758L7.82226 21.8208L7.92172 21.8104ZM7.91543 21.7525L7.9154 21.7485L7.81541 21.7491L7.81543 21.7531L7.91543 21.7525ZM7.91522 21.7531L7.92026 21.6945L7.82063 21.6859L7.81559 21.7445L7.91522 21.7531ZM7.91946 21.7001L7.92314 21.6818L7.82511 21.6621L7.82143 21.6803L7.91946 21.7001ZM7.92175 21.6872L7.93913 21.6328L7.84388 21.6023L7.8265 21.6567L7.92175 21.6872ZM7.93696 21.6384L7.94753 21.6153L7.85662 21.5737L7.84605 21.5967L7.93696 21.6384ZM7.94259 21.6238L8.00634 21.5356L7.92531 21.477L7.86155 21.5652L7.94259 21.6238ZM8.01583 21.9912L8.01583 21.5063L7.91583 21.5063L7.91583 21.9912L8.01583 21.9912ZM7.87199 21.8156L7.7739 21.8351L7.7739 21.8351L7.87199 21.8156ZM7.86543 21.7528L7.76544 21.754L7.76544 21.754L7.86543 21.7528ZM7.86541 21.7488L7.76541 21.7488L7.76541 21.7488L7.86541 21.7488ZM7.87044 21.6902L7.77191 21.6731L7.77191 21.6731L7.87044 21.6902ZM7.87413 21.6719L7.97158 21.6944L7.97158 21.6944L7.87413 21.6719ZM7.89151 21.6176L7.79912 21.5793L7.79912 21.5793L7.89151 21.6176ZM7.90207 21.5945L7.99138 21.6395L7.99138 21.6395L7.90207 21.5945ZM10.3227 19.1863L10.361 19.2787L10.3227 19.1863ZM10.454 19.1602L10.454 19.2602L10.454 19.1602ZM10.5852 19.1863L10.6234 19.0939L10.6234 19.0939L10.5852 19.1863ZM10.7707 19.3719L10.8631 19.3336L10.8631 19.3336L10.7707 19.3719ZM10.7707 19.6343L10.6783 19.596L10.6783 19.596L10.7707 19.6343ZM9.03599 21.4059L8.96528 21.3352L8.79457 21.5059L9.03599 21.5059V21.4059ZM16.742 21.4059L16.7437 21.3059L16.742 21.3059L16.742 21.4059ZM17.0789 21.7487L17.1789 21.7487L17.1789 21.7487L17.0789 21.7487ZM16.742 22.0915L16.742 22.1915L16.7437 22.1915L16.742 22.0915ZM9.03589 22.0915V21.9915L8.79447 21.9915L8.96518 22.1622L9.03589 22.0915ZM10.454 24.3373V24.2373L10.454 24.2373L10.454 24.3373ZM8.0365 21.9205C8.00255 21.8865 7.97943 21.8432 7.97007 21.7961L7.7739 21.8351C7.79098 21.921 7.83314 21.9999 7.89505 22.0619L8.0365 21.9205ZM7.97007 21.7961C7.96714 21.7814 7.9656 21.7665 7.96542 21.7517L7.76544 21.754C7.76576 21.7811 7.76857 21.8083 7.7739 21.8351L7.97007 21.7961ZM7.96542 21.7517C7.96541 21.7507 7.96541 21.7497 7.96541 21.7488L7.76541 21.7488C7.76541 21.7505 7.76542 21.7523 7.76544 21.754L7.96542 21.7517ZM7.96541 21.7488C7.96541 21.7349 7.9666 21.721 7.96897 21.7073L7.77191 21.6731C7.76758 21.6981 7.76541 21.7234 7.76541 21.7488L7.96541 21.7488ZM7.96897 21.7073C7.96973 21.703 7.9706 21.6986 7.97158 21.6944L7.77667 21.6495C7.77487 21.6574 7.77328 21.6652 7.77191 21.6731L7.96897 21.7073ZM7.97158 21.6944C7.9746 21.6813 7.9787 21.6684 7.98389 21.6558L7.79912 21.5793C7.78966 21.6021 7.78216 21.6256 7.77667 21.6495L7.97158 21.6944ZM7.98389 21.6558C7.98619 21.6503 7.98869 21.6448 7.99138 21.6395L7.81276 21.5495C7.80786 21.5593 7.80331 21.5692 7.79912 21.5793L7.98389 21.6558ZM7.99138 21.6395C8.00304 21.6164 8.0183 21.5953 8.03654 21.5771L7.89511 21.4356C7.86186 21.4689 7.83403 21.5073 7.81276 21.5495L7.99138 21.6395ZM8.03654 21.5771L10.2822 19.3314L10.1408 19.1899L7.89512 21.4356L8.03654 21.5771ZM10.2822 19.3314C10.3048 19.3088 10.3316 19.2909 10.361 19.2787L10.2845 19.0939C10.2307 19.1162 10.1819 19.1488 10.1408 19.1899L10.2822 19.3314ZM10.361 19.2787C10.3905 19.2665 10.4221 19.2602 10.454 19.2602L10.454 19.0602C10.3958 19.0602 10.3382 19.0717 10.2845 19.0939L10.361 19.2787ZM10.454 19.2602C10.4858 19.2602 10.5174 19.2665 10.5469 19.2787L10.6234 19.0939C10.5697 19.0717 10.5121 19.0602 10.454 19.0602L10.454 19.2602ZM10.5469 19.2787C10.5764 19.2909 10.6031 19.3088 10.6257 19.3314L10.7671 19.1899C10.726 19.1488 10.6772 19.1162 10.6234 19.0939L10.5469 19.2787ZM10.6257 19.3314C10.6482 19.3539 10.6661 19.3807 10.6783 19.4102L10.8631 19.3336C10.8408 19.2799 10.8082 19.2311 10.7671 19.1899L10.6257 19.3314ZM10.6783 19.4102C10.6905 19.4396 10.6968 19.4712 10.6968 19.5031H10.8968C10.8968 19.4449 10.8854 19.3873 10.8631 19.3336L10.6783 19.4102ZM10.6968 19.5031C10.6968 19.535 10.6905 19.5666 10.6783 19.596L10.8631 19.6726C10.8854 19.6188 10.8968 19.5612 10.8968 19.5031H10.6968ZM10.6783 19.596C10.6661 19.6255 10.6482 19.6523 10.6257 19.6748L10.7671 19.8162C10.8082 19.7751 10.8408 19.7263 10.8631 19.6726L10.6783 19.596ZM10.6257 19.6748L8.96528 21.3352L9.1067 21.4766L10.7671 19.8162L10.6257 19.6748ZM9.03599 21.5059L16.742 21.5059L16.742 21.3059L9.03599 21.3059V21.5059ZM16.7402 21.5059C16.8039 21.507 16.8646 21.5331 16.9092 21.5785L17.0519 21.4383C16.9705 21.3555 16.8598 21.308 16.7437 21.3059L16.7402 21.5059ZM16.9092 21.5785C16.9539 21.6239 16.9789 21.685 16.9789 21.7487L17.1789 21.7487C17.1789 21.6326 17.1333 21.5211 17.0519 21.4383L16.9092 21.5785ZM16.9789 21.7487C16.9789 21.8124 16.9539 21.8735 16.9092 21.919L17.0519 22.0591C17.1333 21.9763 17.1789 21.8648 17.1789 21.7487L16.9789 21.7487ZM16.9092 21.919C16.8646 21.9644 16.8039 21.9904 16.7402 21.9915L16.7437 22.1915C16.8598 22.1895 16.9705 22.142 17.0519 22.0591L16.9092 21.919ZM16.742 21.9915L9.03589 21.9915V22.1915L16.742 22.1915V21.9915ZM8.96518 22.1622L10.6257 23.8227L10.7671 23.6813L9.1066 22.0208L8.96518 22.1622ZM10.6257 23.8227C10.6712 23.8683 10.6968 23.9301 10.6968 23.9945H10.8968C10.8968 23.877 10.8502 23.7644 10.7671 23.6813L10.6257 23.8227ZM10.6968 23.9945C10.6968 24.0589 10.6712 24.1207 10.6257 24.1662L10.7671 24.3076C10.8502 24.2246 10.8968 24.1119 10.8968 23.9945H10.6968ZM10.6257 24.1662C10.5801 24.2117 10.5184 24.2373 10.454 24.2373V24.4373C10.5714 24.4373 10.684 24.3907 10.7671 24.3076L10.6257 24.1662ZM10.454 24.2373C10.3895 24.2373 10.3278 24.2117 10.2822 24.1662L10.1408 24.3076C10.2239 24.3907 10.3365 24.4373 10.454 24.4373L10.454 24.2373ZM10.2822 24.1662L8.03654 21.9205L7.89512 22.0619L10.1408 24.3076L10.2822 24.1662Z" fill="#2B2A28" mask="url(#path-7-outside-2_131_178)"/>
</svg>
