<svg width="32" height="32" viewBox="0 0 32 32" fill="none" xmlns="http://www.w3.org/2000/svg">
<rect width="32" height="32" fill="white"/>
<path d="M27.3793 18.1428C27.453 18.2165 27.5529 18.2579 27.6571 18.2579C27.7613 18.2579 27.8612 18.2165 27.9349 18.1428C28.0086 18.0692 28.05 17.9692 28.05 17.865V16.8468C28.05 16.7426 28.0086 16.6426 27.9349 16.569C27.8612 16.4953 27.7613 16.4539 27.6571 16.4539C27.5529 16.4539 27.453 16.4953 27.3793 16.569C27.3057 16.6426 27.2643 16.7426 27.2643 16.8468V17.865C27.2643 17.9692 27.3057 18.0692 27.3793 18.1428Z" fill="#2B2A28" stroke="#2B2A28" stroke-width="0.1"/>
<path d="M5.37143 28.05H26.6286C27.0056 28.05 27.3671 27.9002 27.6337 27.6337C27.9002 27.3671 28.05 27.0056 28.05 26.6286V20.2651C28.05 20.161 28.0086 20.061 27.9349 19.9874C27.8613 19.9137 27.7613 19.8723 27.6571 19.8723C27.5529 19.8723 27.453 19.9137 27.3794 19.9874C27.3057 20.061 27.2643 20.161 27.2643 20.2651V26.6286C27.2643 26.7972 27.1973 26.9589 27.0781 27.0781C26.9589 27.1973 26.7972 27.2643 26.6286 27.2643H5.37143C5.20283 27.2643 5.04113 27.1973 4.92191 27.0781C4.80269 26.9589 4.73571 26.7972 4.73571 26.6286V5.37143C4.73571 5.20283 4.80269 5.04113 4.92191 4.92191C5.04113 4.80269 5.20283 4.73571 5.37143 4.73571H26.6286C26.7972 4.73571 26.9589 4.80269 27.0781 4.92191C27.1973 5.04113 27.2643 5.20283 27.2643 5.37143V11.0491C27.2643 11.1533 27.3057 11.2533 27.3794 11.3269C27.453 11.4006 27.553 11.442 27.6571 11.442C27.7613 11.442 27.8613 11.4006 27.9349 11.3269C28.0086 11.2533 28.05 11.1533 28.05 11.0491V5.37143C28.05 4.99444 27.9002 4.6329 27.6337 4.36633C27.3671 4.09976 27.0056 3.95 26.6286 3.95H5.37143C4.99444 3.95 4.6329 4.09976 4.36633 4.36633C4.09976 4.6329 3.95 4.99444 3.95 5.37143V26.6286C3.95 27.0056 4.09976 27.3671 4.36633 27.6337C4.6329 27.9002 4.99444 28.05 5.37143 28.05Z" fill="#2B2A28" stroke="#2B2A28" stroke-width="0.1"/>
<path d="M27.3793 14.7248C27.453 14.7985 27.5529 14.8399 27.6571 14.8399C27.7613 14.8399 27.8612 14.7985 27.9349 14.7248C28.0086 14.6511 28.05 14.5512 28.05 14.447V13.4493C28.05 13.3451 28.0086 13.2452 27.9349 13.1715C27.8612 13.0978 27.7613 13.0564 27.6571 13.0564C27.5529 13.0564 27.453 13.0978 27.3793 13.1715C27.3057 13.2452 27.2643 13.3451 27.2643 13.4493V14.447C27.2643 14.5512 27.3057 14.6511 27.3793 14.7248Z" fill="#2B2A28" stroke="#2B2A28" stroke-width="0.1"/>
<path d="M17.2309 14.2133L17.2309 14.2133C17.1759 14.2683 17.1385 14.3383 17.1234 14.4145C17.1082 14.4907 17.116 14.5696 17.1457 14.6414C17.1755 14.7132 17.2258 14.7745 17.2904 14.8177C17.355 14.8609 17.4309 14.8839 17.5086 14.8839H17.5086C17.6128 14.8839 17.7127 14.8425 17.7864 14.7688C17.7864 14.7688 17.7864 14.7688 17.7864 14.7688L23.8207 8.73456L23.8207 8.73457L23.8213 8.73394C23.8928 8.65985 23.9324 8.56061 23.9315 8.45761C23.9306 8.3546 23.8893 8.25607 23.8165 8.18323C23.7436 8.11039 23.6451 8.06907 23.5421 8.06818C23.4391 8.06728 23.3399 8.10688 23.2658 8.17844L23.2658 8.17844L23.2651 8.17905L17.2309 14.2133Z" fill="#2B2A28" stroke="#2B2A28" stroke-width="0.1"/>
<path d="M23.2651 11.9108C23.3387 11.9845 23.4387 12.0259 23.5429 12.0259C23.647 12.0259 23.747 11.9845 23.8206 11.9108C23.8943 11.8371 23.9357 11.7372 23.9357 11.633V8.45711C23.9357 8.35292 23.8943 8.253 23.8206 8.17932C23.747 8.10565 23.647 8.06426 23.5429 8.06426H20.367C20.2628 8.06426 20.1628 8.10565 20.0892 8.17932C20.0155 8.253 19.9741 8.35292 19.9741 8.45711C19.9741 8.56131 20.0155 8.66123 20.0892 8.73491C20.1628 8.80858 20.2628 8.84997 20.367 8.84997H23.15V11.633C23.15 11.7372 23.1914 11.8371 23.2651 11.9108Z" fill="#2B2A28" stroke="#2B2A28" stroke-width="0.1"/>
<path d="M8.17935 23.2651L8.17934 23.2651C8.12442 23.32 8.08701 23.39 8.07186 23.4662C8.05671 23.5424 8.06449 23.6214 8.09422 23.6932C8.12395 23.765 8.17429 23.8263 8.23888 23.8695C8.30347 23.9126 8.3794 23.9357 8.45709 23.9357H8.45711C8.56129 23.9357 8.6612 23.8943 8.73486 23.8206C8.73486 23.8206 8.73486 23.8206 8.73486 23.8206L14.7691 17.7863L14.7691 17.7863L14.7698 17.7857C14.8413 17.7116 14.8809 17.6124 14.88 17.5094C14.8791 17.4064 14.8378 17.3078 14.765 17.235C14.6921 17.1621 14.5936 17.1208 14.4906 17.1199C14.3876 17.119 14.2883 17.1586 14.2143 17.2302L14.2142 17.2302L14.2136 17.2308L8.17935 23.2651Z" fill="#2B2A28" stroke="#2B2A28" stroke-width="0.1"/>
<path d="M8.45699 23.936H11.6329C11.7371 23.936 11.837 23.8946 11.9107 23.8209C11.9843 23.7473 12.0257 23.6473 12.0257 23.5432C12.0257 23.439 11.9843 23.339 11.9107 23.2654C11.837 23.1917 11.7371 23.1503 11.6329 23.1503H8.84985V20.3673C8.84985 20.3157 8.83969 20.2646 8.81995 20.2169C8.8002 20.1693 8.77126 20.126 8.73478 20.0895C8.6983 20.053 8.655 20.0241 8.60733 20.0043C8.55967 19.9846 8.50858 19.9744 8.45699 19.9744C8.4054 19.9744 8.35432 19.9846 8.30665 20.0043C8.25899 20.0241 8.21568 20.053 8.1792 20.0895C8.14272 20.126 8.11378 20.1693 8.09404 20.2169C8.0743 20.2646 8.06414 20.3157 8.06414 20.3673V23.5432C8.06414 23.6473 8.10553 23.7473 8.1792 23.8209C8.25288 23.8946 8.3528 23.936 8.45699 23.936Z" fill="#2B2A28" stroke="#2B2A28" stroke-width="0.1"/>
</svg>
