<svg width="62" height="63" viewBox="0 0 62 63" fill="none" xmlns="http://www.w3.org/2000/svg">
<rect opacity="0.58" width="62" height="62" fill="white"/>
<path d="M21.964 45.5631L21.9776 45.567L21.9916 45.5682C27.6375 46.0796 32.0763 50.8388 32.0763 56.6154V61.789C32.0763 62.375 31.6013 62.85 31.0154 62.85H1.21094C0.624979 62.85 0.15 62.375 0.15 61.789V56.6154C0.15 50.8387 4.58902 46.0795 10.235 45.5682L10.2491 45.567L10.2627 45.5631C10.3384 45.5415 10.4168 45.5291 10.4967 45.5248L10.8216 45.5073L10.5973 45.2716C9.29604 43.9041 8.49529 42.0573 8.49529 40.0258V34.0973C8.49529 30.76 11.2106 28.0445 14.5481 28.0445H22.6702C23.2562 28.0445 23.7311 28.5195 23.7311 29.1055V33.1362C23.7311 33.2486 23.7259 33.3607 23.7181 33.4736L23.717 33.4893L23.7192 33.5049C23.7265 33.5568 23.7311 33.6061 23.7311 33.655V40.0258C23.7311 42.0572 22.9303 43.9041 21.6291 45.2716L21.4048 45.5074L21.7297 45.5248C21.8098 45.5291 21.8882 45.5415 21.964 45.5631ZM21.6093 30.3163V30.1663H21.4593H14.5481C12.3805 30.1663 10.6172 31.9296 10.6172 34.0972V35.6329V35.7105V35.8605H10.7672H18.8848C20.3872 35.8605 21.6093 34.6385 21.6093 33.1361V30.3163ZM10.7672 37.9824H10.6172V38.1324V40.0257C10.6172 43.0563 13.0826 45.5217 16.1132 45.5217C19.1438 45.5217 21.6093 43.0563 21.6093 40.0257V37.4163V37.1504L21.3817 37.2878C20.652 37.7285 19.7978 37.9824 18.8848 37.9824H10.7672ZM18.8549 47.8998L19.1109 47.6437H18.7488H13.4776H13.1155L13.3715 47.8998L16.0071 50.5355L16.1132 50.6416L16.2193 50.5355L18.8549 47.8998ZM29.8046 60.7281H29.9546V60.5781V56.6154C29.9546 52.0533 26.5314 48.2789 22.1195 47.7182L22.0465 47.7089L21.9945 47.7609L16.8634 52.892C16.6645 53.091 16.3946 53.2028 16.1132 53.2028C15.8319 53.2028 15.562 53.091 15.363 52.892L10.2319 47.7609L10.1799 47.7089L10.1069 47.7182C5.9874 48.2419 2.73052 51.5668 2.31681 55.7195L2.30039 55.8843H2.46607H7.44726C8.03322 55.8843 8.5082 56.3593 8.5082 56.9453C8.5082 57.5312 8.03322 58.0062 7.44726 58.0062H2.42187H2.27187V58.1562V60.5781V60.7281H2.42187H29.8046Z" fill="#CB8734" stroke="white" stroke-width="0.3"/>
<path d="M51.7378 18.6687L51.7514 18.6726L51.7654 18.6738C57.4111 19.1853 61.8499 23.9445 61.8499 29.721V34.8945C61.8499 35.4804 61.3749 35.9554 60.7889 35.9554H50.6574C50.0714 35.9554 49.5964 35.4804 49.5964 34.8945C49.5964 34.3085 50.0714 33.8336 50.6574 33.8336H59.578H59.728V33.6836V29.721C59.728 25.1589 56.3049 21.3846 51.8928 20.8238L51.8198 20.8145L51.7678 20.8665L46.6367 25.9976L46.6367 25.9977C46.4296 26.2048 46.1583 26.3084 45.8865 26.3084C45.6148 26.3084 45.3436 26.2049 45.1363 25.9976L40.0052 20.8665L39.9532 20.8145L39.8803 20.8238C35.4684 21.3845 32.0453 25.1589 32.0453 29.721V33.6834V33.8334H32.1953H40.7276C41.3135 33.8334 41.7885 34.3084 41.7885 34.8944C41.7885 35.4803 41.3135 35.9553 40.7276 35.9553H30.9844C30.3984 35.9553 29.9234 35.4803 29.9234 34.8944V29.7209C29.9234 23.9444 34.3621 19.1852 40.0079 18.6737L40.0219 18.6724L40.0355 18.6686C40.1113 18.647 40.1899 18.6346 40.27 18.6303L40.5949 18.6128L40.3706 18.3771C39.0695 17.0095 38.2687 15.1627 38.2687 13.1313V7.20278C38.2687 3.86545 40.9841 1.15 44.3215 1.15H52.4436C53.0296 1.15 53.5046 1.62498 53.5046 2.21094V6.24166C53.5046 6.35406 53.4993 6.46615 53.4915 6.57905L53.4904 6.59475L53.4926 6.61034C53.4999 6.66228 53.5046 6.7116 53.5046 6.76043V13.1314C53.5046 15.1628 52.7038 17.0096 51.4027 18.3772L51.1784 18.613L51.5033 18.6304C51.5835 18.6347 51.662 18.6471 51.7378 18.6687ZM45.7807 23.641L45.8868 23.7471L45.9928 23.641L48.6284 21.0054L48.8845 20.7493H48.5224H43.2512H42.889L43.1451 21.0054L45.7807 23.641ZM40.5407 11.088H40.3907V11.238V13.1314C40.3907 16.162 42.8562 18.6273 45.8868 18.6273C48.9174 18.6273 51.3828 16.1619 51.3828 13.1313V10.5218V10.2561L51.1553 10.3934C50.4256 10.834 49.5713 11.088 48.6584 11.088H40.5407ZM40.3907 8.81611V8.96611H40.5407H48.6584C50.1608 8.96611 51.3828 7.74409 51.3828 6.24166V3.42187V3.27187H51.2328H44.3216C42.154 3.27187 40.3907 5.03519 40.3907 7.20278V8.73849V8.81611Z" fill="#CB8734" stroke="white" stroke-width="0.3"/>
<path d="M45.1369 34.1443L45.1371 34.144C45.3343 33.9468 45.6074 33.8331 45.8872 33.8331C46.1658 33.8331 46.4401 33.9468 46.6373 34.144C46.8344 34.3411 46.9481 34.6154 46.9481 34.894C46.9481 35.1738 46.8345 35.4469 46.6373 35.6441L46.637 35.6444C46.4402 35.8422 46.1662 35.955 45.8872 35.955C45.6071 35.955 45.3343 35.8423 45.1374 35.6444L45.1369 35.6438C44.939 35.447 44.8263 35.1742 44.8263 34.894C44.8263 34.6151 44.939 34.341 45.1369 34.1443Z" fill="#CB8734" stroke="white" stroke-width="0.3"/>
<path d="M27.1668 12.8803V12.9424L27.2107 12.9863L32.275 18.0506C32.5783 18.354 32.6691 18.8104 32.5049 19.2068C32.3407 19.6032 31.9537 19.8617 31.5247 19.8617H26.8645H26.7636L26.7256 19.9552C25.8325 22.1505 23.7041 23.6156 21.262 23.6156H6.05469C2.79897 23.6156 0.15 20.9666 0.15 17.7109V7.05469C0.15 3.79897 2.79897 1.15 6.05469 1.15H21.2621C24.5178 1.15 27.1668 3.79897 27.1668 7.05469V12.8803ZM28.6012 17.7398H28.9634L28.7073 17.4838L25.3556 14.132C25.1566 13.9331 25.0448 13.6632 25.0448 13.3818V7.05469C25.0448 4.96871 23.348 3.27187 21.262 3.27187H6.05469C3.96871 3.27187 2.27187 4.96871 2.27187 7.05469V17.7109C2.27187 19.7969 3.96871 21.4937 6.05469 21.4937H21.262C23.0343 21.4937 24.5502 20.2882 24.9471 18.5629C25.058 18.0811 25.4868 17.7398 25.9811 17.7398H28.6012Z" fill="#CB8734" stroke="white" stroke-width="0.3"/>
<path d="M35.1353 44.1383H35.2362L35.2743 44.0448C36.1674 41.8495 38.2958 40.3844 40.7379 40.3844H55.9452C59.2009 40.3844 61.8498 43.0333 61.8498 46.2891V56.9453C61.8498 60.201 59.2009 62.85 55.9452 62.85H40.7377C37.482 62.85 34.833 60.201 34.833 56.9453V51.1197V51.0576L34.7891 51.0137L29.7249 45.9494C29.7249 45.9494 29.7249 45.9494 29.7249 45.9494C29.4215 45.646 29.3307 45.1895 29.495 44.7932C29.6592 44.3968 30.0461 44.1383 30.4752 44.1383H35.1353ZM33.3986 46.2602H33.0365L33.2925 46.5162L36.6443 49.868C36.8432 50.0669 36.955 50.3368 36.955 50.6182V56.9453C36.955 59.0313 38.6519 60.7281 40.7379 60.7281H55.9452C58.0311 60.7281 59.728 59.0313 59.728 56.9453V46.2891C59.728 44.2031 58.0311 42.5062 55.9452 42.5062H40.7379C38.9655 42.5062 37.4496 43.7118 37.0527 45.4371C36.9418 45.9188 36.513 46.2602 36.0187 46.2602H33.3986Z" fill="#CB8734" stroke="white" stroke-width="0.3"/>
<path d="M48.8532 51.8263L48.7471 51.7203L47.2503 50.2234C46.836 49.8092 46.1642 49.8091 45.7498 50.2234C45.7498 50.2234 45.7498 50.2235 45.7498 50.2235M48.8532 51.8263L49.7093 54.1831C49.4729 54.4196 49.1629 54.5378 48.8531 54.5378C48.5432 54.5378 48.2333 54.4196 47.9968 54.1831L45.6437 51.83C45.1708 51.357 45.1708 50.5902 45.6437 50.1174L45.7498 50.2235M48.8532 51.8263L48.9592 51.7203L52.1783 48.5012C52.5926 48.0869 53.2644 48.087 53.6785 48.5012C54.0928 48.9157 54.0928 49.5875 53.6785 50.0017L49.6032 54.077L49.6032 54.0771C49.3961 54.2842 49.1248 54.3878 48.8531 54.3878C48.5813 54.3878 48.3101 54.2843 48.1029 54.077L45.7498 51.7239L45.6437 51.83L45.7498 51.7239M48.8532 51.8263L45.7498 51.7239M45.7498 50.2235C45.3355 50.6377 45.3355 51.3095 45.7498 51.7239M45.7498 50.2235L45.7498 51.7239" fill="#CB8734" stroke="white" stroke-width="0.3"/>
<path d="M16.7476 9.19134C16.8088 10.0776 16.2278 10.8609 15.3662 11.0536M16.7476 9.19134L16.8973 9.18102C16.8973 9.18102 16.8973 9.18102 16.8973 9.18101C16.8317 8.22975 16.0657 7.46373 15.1144 7.3981C14.5729 7.3601 14.0555 7.54297 13.6613 7.91108C13.2667 8.27945 13.0489 8.78052 13.0489 9.31994C13.0489 9.9059 12.5739 10.3809 11.9879 10.3809C11.402 10.3809 10.927 9.90592 10.9269 9.31982L15.3662 11.0536M16.7476 9.19134C16.6872 8.31474 15.9806 7.60816 15.104 7.54774L16.7476 9.19134ZM15.3662 11.0536C14.4231 11.2646 13.7645 12.0845 13.7645 13.0474M15.3662 11.0536L13.7645 13.0474M12.2133 6.35986L12.2133 6.35987C11.3959 7.12285 10.9269 8.20204 10.9269 9.31979L12.2133 6.35986ZM12.2133 6.35986C13.0425 5.58576 14.124 5.20291 15.2601 5.28108L12.2133 6.35986ZM13.7645 13.0474V13.6935M13.7645 13.0474V13.6935M13.7645 13.6935C13.7645 14.3623 14.3066 14.9044 14.9754 14.9044M13.7645 13.6935L14.9754 14.9044M14.9754 14.9044C15.6442 14.9044 16.1864 14.3623 16.1864 13.6935M14.9754 14.9044L16.1864 13.6935M16.1864 13.6935V13.3411V13.6935Z" fill="#CB8734" stroke="white" stroke-width="0.3"/>
<path d="M14.2252 17.5774L14.2255 17.5771C14.4227 17.3799 14.6958 17.2662 14.9756 17.2662C15.2542 17.2662 15.5285 17.3799 15.7257 17.5771C15.9228 17.7742 16.0365 18.0485 16.0365 18.3271C16.0365 18.6058 15.9228 18.8801 15.7257 19.0772C15.5285 19.2744 15.2542 19.3881 14.9756 19.3881C14.6958 19.3881 14.4227 19.2744 14.2255 19.0772L14.2252 19.0769C14.0274 18.8802 13.9146 18.6061 13.9146 18.3271C13.9146 18.0482 14.0274 17.7741 14.2252 17.5774Z" fill="#CB8734" stroke="white" stroke-width="0.3"/>
<path d="M12.291 55.8844C12.5697 55.8844 12.8439 55.9981 13.0411 56.1952C13.2382 56.3924 13.352 56.6667 13.352 56.9453C13.352 57.224 13.2382 57.4982 13.0411 57.6954C12.8439 57.8925 12.5697 58.0062 12.291 58.0062C12.0124 58.0062 11.7381 57.8925 11.5409 57.6954C11.3438 57.4982 11.2301 57.224 11.2301 56.9453C11.2301 56.6667 11.3438 56.3924 11.5409 56.1952C11.7381 55.9981 12.0124 55.8844 12.291 55.8844Z" fill="#CB8734" stroke="white" stroke-width="0.3"/>
</svg>
