<svg width="62" height="62" viewBox="0 0 62 62" fill="none" xmlns="http://www.w3.org/2000/svg">
<path d="M38.6175 39.8704L38.6516 39.8818L38.6733 39.853L42.0003 35.4163L45.3273 39.853L45.3489 39.8818L45.3831 39.8704L49.1583 38.613L47.8239 47.95H36.1766L34.8422 38.613L38.6175 39.8704ZM46.1333 46.05H46.1766L46.1827 46.0071L46.8307 41.4671L46.8422 41.387L46.7654 41.4126L44.6516 42.1182L42.0402 38.637L42.0003 38.5837L41.9603 38.637L39.3489 42.1182L37.2351 41.4126L37.1583 41.387L37.1698 41.4671L37.8178 46.0071L37.8239 46.05H37.8673H46.1333Z" fill="#CB8734" stroke="white" stroke-width="0.1"/>
<path d="M30.05 42C30.05 35.4106 35.4106 30.05 42 30.05C48.5894 30.05 53.95 35.4106 53.95 42C53.95 48.5894 48.5894 53.95 42 53.95C35.4106 53.95 30.05 48.5894 30.05 42ZM31.95 42C31.95 47.5416 36.4584 52.05 42 52.05C47.5416 52.05 52.05 47.5416 52.05 42C52.05 36.4584 47.5416 31.95 42 31.95C36.4584 31.95 31.95 36.4584 31.95 42Z" fill="#CB8734" stroke="white" stroke-width="0.1"/>
<path d="M51.9343 51.9352C52.471 51.3996 52.8407 50.7302 53.0058 49.9979M51.9343 51.9352L51.899 51.8999M51.9343 51.9352C51.9343 51.9352 51.9343 51.9352 51.9344 51.9352L51.899 51.8999M51.9343 51.9352C51.3997 52.4698 50.7303 52.8405 49.997 53.0066C47.9116 53.4794 45.9369 54.2962 44.1268 55.4381C42.8584 56.2414 41.1416 56.2414 39.8713 55.4381C38.0631 54.2962 36.0874 53.4794 34.0019 53.0066C33.2687 52.8405 32.5993 52.4708 32.0646 51.9352C31.529 51.3996 31.1583 50.7302 30.9932 49.9968C30.5215 47.9154 29.7047 45.9417 28.5617 44.1275C28.1616 43.4934 27.95 42.7572 27.95 41.9999C27.95 41.2425 28.1616 40.5062 28.5627 39.8712C29.7057 38.059 30.5225 36.0843 30.9942 34.0019L53.0058 49.9979M53.0058 49.9979C53.4775 47.9154 54.2943 45.9407 55.4373 44.1285M53.0058 49.9979L55.4373 44.1285M51.899 51.8999C52.429 51.3709 52.794 50.7099 52.957 49.9869L51.899 51.8999ZM55.4373 44.1285C55.8384 43.4935 56.05 42.7572 56.05 41.9999C56.05 41.2425 55.8384 40.5063 55.4383 39.8732C54.2953 38.059 53.4785 36.0853 53.0068 34.0038C52.8416 33.2705 52.4709 32.6021 51.9354 32.0655C51.3998 31.5289 50.7303 31.1592 49.998 30.9941C47.9126 30.5223 45.9379 29.7045 44.1287 28.5626C43.4936 28.1615 42.7573 27.9499 42 27.9499C41.2427 27.9499 40.5064 28.1615 39.8733 28.5616C38.0621 29.7035 36.0884 30.5213 34.004 30.9931C33.2706 31.1582 32.6022 31.5289 32.0657 32.0645C31.529 32.6001 31.1593 33.2695 30.9942 34.0018L55.4373 44.1285ZM54.8592 33.5848L54.8592 33.5849C55.2825 35.4544 56.0177 37.2297 57.0437 38.8585L57.0437 38.8586C57.6366 39.7955 57.95 40.8822 57.95 41.9999C57.95 43.1175 57.6366 44.2042 57.0447 45.1411L57.0447 45.1412C56.0177 46.769 55.2835 48.5443 54.8602 50.4148L54.8602 50.4149C54.6163 51.4975 54.069 52.4871 53.2786 53.2775L53.2786 53.2775C52.4903 54.0668 51.5007 54.6132 50.4169 54.8591C48.5434 55.2833 46.7681 56.0185 45.1413 57.0435L45.1413 57.0436C44.2043 57.6365 43.1176 57.9499 42 57.9499C40.8824 57.9499 39.7956 57.6365 38.8587 57.0446L38.8587 57.0446C37.2329 56.0185 35.4576 55.2843 33.5841 54.8601C32.5003 54.6142 31.5107 54.0678 30.7224 53.2785L30.7224 53.2785C29.932 52.4881 29.3847 51.4985 29.1408 50.4149L29.1408 50.4148C28.7175 48.5453 27.9823 46.77 26.9563 45.1412L26.9563 45.1411C26.3634 44.2042 26.05 43.1175 26.05 41.9999C26.05 40.8822 26.3634 39.7955 26.9543 38.8575C27.9813 37.2297 28.7155 35.4544 29.1388 33.5839L29.1388 33.5839C29.3827 32.5022 29.93 31.5116 30.7204 30.7212C31.5107 29.9308 32.5003 29.3835 33.584 29.1396L33.584 29.1396C35.4556 28.7164 37.2309 27.9802 38.8577 26.9552L38.8577 26.9551C40.7324 25.7704 43.2646 25.7704 45.1413 26.9551L45.168 26.9129L45.1413 26.9551C46.7671 27.9812 48.5424 28.7164 50.415 29.1396L50.415 29.1396C51.4977 29.3835 52.4873 29.9308 53.2776 30.7212C54.068 31.5116 54.6153 32.5021 54.8592 33.5848Z" fill="#CB8734" stroke="white" stroke-width="0.1"/>
<path d="M14 16.05H14.05V16V2C14.05 0.924614 14.9246 0.05 16 0.05H49.3933L61.95 12.6067V60C61.95 61.0754 61.0754 61.95 60 61.95H2C0.924614 61.95 0.05 61.0754 0.05 60V54C0.05 51.8216 1.82161 50.05 4 50.05H5.523H5.59685L5.56942 49.9814L4.29443 46.7934L4.248 46.812L4.29442 46.7934C4.13278 46.3893 4.05 45.9616 4.05 45.524C4.05 44.222 4.77328 43.0523 5.93938 42.4687L5.93958 42.4686L6.02258 42.4266L6.05 42.4127V42.382V39.082H6.05069L6.04932 39.0738L4.08732 27.3048L4.08608 27.2974L4.08272 27.2906L1.87234 22.8689L7.55442 16.05H14ZM52.05 14V13.95H52H48.05V8V7.95H48H24H23.95V8V16V16.05H24H52H52.05V16V14ZM49.95 12V12.05H50H58.586H58.7067L58.6214 11.9646L50.0354 3.37864L49.95 3.29329V3.414V12ZM16.865 22.05H16.9718L16.9034 21.968L13.5694 17.968L13.5544 17.95H13.531H12H11.95V18V22V22.05H12H16.865ZM14.153 38.05H14.1954L14.2023 38.0082L15.8683 28.0082L15.878 27.95H15.819H6.18H6.12098L6.13068 28.0082L7.79768 38.0082L7.80465 38.05H7.847H14.153ZM14.05 40V39.95H14H8H7.95V40V42V42.05H8H14H14.05V42V40ZM5.57328 26.0224L5.5871 26.05H5.618H10H10.05V26V24V23.95H10H4.618H4.5371L4.57328 24.0224L5.57328 26.0224ZM16.382 26.05H16.4129L16.4267 26.0224L17.4267 24.0224L17.4629 23.95H17.382H12H11.95V24V26V26.05H12H16.382ZM8.469 17.95H8.44558L8.43059 17.968L5.09659 21.968L5.02823 22.05H5.135H10H10.05V22V18V17.95H10H8.469ZM6.05756 46.0875L6.05758 46.0876L7.63058 50.0186L7.64315 50.05H7.677H14.323H14.3569L14.3694 50.0186L15.9414 46.0886C16.0138 45.9076 16.05 45.7183 16.05 45.524C16.05 44.947 15.7283 44.4267 15.2114 44.1683L14.7854 43.9553L14.7748 43.95H14.763H7.238H7.22622L7.21568 43.9553L6.79071 44.1672C6.27174 44.4257 5.95 44.946 5.95 45.524C5.95 45.7193 5.98618 45.9086 6.05756 46.0875ZM20.001 56.05H20.051L20.051 56L20.05 54C20.05 52.8694 19.1306 51.95 18 51.95H4C2.86939 51.95 1.95 52.8694 1.95 54V56V56.05H2H20.001ZM1.95 60V60.05H2H20.002H20.052L20.052 60L20.051 58L20.051 57.95H20.001H2H1.95V58V60ZM21.95 60V60.05H22H60H60.05V60V14V13.95H60H54H53.95V14V17.95H22.05V6.05H48H48.05V6V2V1.95H48H16H15.95V2V17.838V17.8561L15.9616 17.87L20.1267 22.8689L17.9163 27.2906L17.9129 27.2974L17.9117 27.3048L15.9507 39.0738L15.95 39.0737V39.082V42.382V42.4132L15.9781 42.4269L16.0616 42.4677C16.0618 42.4678 16.0619 42.4678 16.062 42.4679C17.2269 43.0515 17.95 44.2221 17.95 45.524C17.95 45.9626 17.8672 46.3893 17.7046 46.7944L17.7046 46.7944L16.4306 49.9814L16.4032 50.05H16.477H18C20.1784 50.05 21.95 51.8216 21.95 54V60Z" fill="#CB8734" stroke="white" stroke-width="0.1"/>
</svg>
