<svg width="62" height="62" viewBox="0 0 62 62" fill="none" xmlns="http://www.w3.org/2000/svg">
<rect opacity="0.58" width="62" height="62" fill="white"/>
<mask id="path-2-inside-1_162_2740" fill="white">
<path d="M61 52H59V17.5C58.999 16.5721 58.6299 15.6824 57.9737 15.0263C57.3176 14.3701 56.4279 14.001 55.5 14H45V12C45.0002 11.8089 44.9456 11.6219 44.8425 11.461C44.7395 11.3001 44.5924 11.1722 44.4188 11.0925L31.4188 5.0925C31.2876 5.03136 31.1447 4.99968 31 4.99968C30.8553 4.99968 30.7124 5.03136 30.5812 5.0925L25 7.6675V5C25 4.73478 24.8946 4.48043 24.7071 4.29289C24.5196 4.10536 24.2652 4 24 4C23.7348 4 23.4804 4.10536 23.2929 4.29289C23.1054 4.48043 23 4.73478 23 5V8.59125L17.5812 11.0925C17.4076 11.1722 17.2605 11.3001 17.1575 11.461C17.0544 11.6219 16.9998 11.8089 17 12V14H6.5C5.57206 14.001 4.68241 14.3701 4.02626 15.0263C3.3701 15.6824 3.00103 16.5721 3 17.5V52H1C0.734784 52 0.48043 52.1054 0.292893 52.2929C0.105357 52.4804 0 52.7348 0 53V58.5C0.00102566 59.4279 0.370104 60.3176 1.02626 60.9737C1.68241 61.6299 2.57206 61.999 3.5 62H58.5C59.4279 61.999 60.3176 61.6299 60.9737 60.9737C61.6299 60.3176 61.999 59.4279 62 58.5V53C62 52.7348 61.8946 52.4804 61.7071 52.2929C61.5196 52.1054 61.2652 52 61 52ZM23 10.7937V11C23 11.2652 23.1054 11.5196 23.2929 11.7071C23.4804 11.8946 23.7348 12 24 12C24.2652 12 24.5196 11.8946 24.7071 11.7071C24.8946 11.5196 25 11.2652 25 11V9.87L31 7.10125L41.6138 12L31 16.8988L20.3862 12L23 10.7937ZM43 13.5625V25.36L32 30.4375V18.64L43 13.5625ZM19 13.5625L30 18.64V30.4375L19 25.36V13.5625ZM17.5812 26.9075L30.5812 32.9075C30.7124 32.9684 30.8554 33 31 33C31.1446 33 31.2876 32.9684 31.4188 32.9075L44.4188 26.9075C44.5924 26.8278 44.7395 26.6999 44.8425 26.539C44.9456 26.3781 45.0002 26.1911 45 26V19H54V49H8V19H17V26C16.9998 26.1911 17.0544 26.3781 17.1575 26.539C17.2605 26.6999 17.4076 26.8278 17.5812 26.9075ZM5 17.5C5.00033 17.1023 5.15847 16.7209 5.43971 16.4397C5.72094 16.1585 6.10228 16.0003 6.5 16H17V17H7C6.73478 17 6.48043 17.1054 6.29289 17.2929C6.10536 17.4804 6 17.7348 6 18V50C6 50.2652 6.10536 50.5196 6.29289 50.7071C6.48043 50.8946 6.73478 51 7 51H55C55.2652 51 55.5196 50.8946 55.7071 50.7071C55.8946 50.5196 56 50.2652 56 50V18C56 17.7348 55.8946 17.4804 55.7071 17.2929C55.5196 17.1054 55.2652 17 55 17H45V16H55.5C55.8977 16.0003 56.2791 16.1585 56.5603 16.4397C56.8415 16.7209 56.9997 17.1023 57 17.5V52H5V17.5ZM34.7188 54L34.2188 56H27.7812L27.2812 54H34.7188ZM60 58.5C59.9997 58.8977 59.8415 59.2791 59.5603 59.5603C59.2791 59.8415 58.8977 59.9997 58.5 60H3.5C3.10228 59.9997 2.72094 59.8415 2.43971 59.5603C2.15847 59.2791 2.00033 58.8977 2 58.5V54H25.2188L26.03 57.2425C26.0841 57.4588 26.2089 57.6509 26.3847 57.7881C26.5604 57.9254 26.777 58 27 58H35C35.223 58 35.4396 57.9254 35.6153 57.7881C35.7911 57.6509 35.9159 57.4588 35.97 57.2425L36.7812 54H60V58.5Z"/>
</mask>
<path d="M61 52H59V17.5C58.999 16.5721 58.6299 15.6824 57.9737 15.0263C57.3176 14.3701 56.4279 14.001 55.5 14H45V12C45.0002 11.8089 44.9456 11.6219 44.8425 11.461C44.7395 11.3001 44.5924 11.1722 44.4188 11.0925L31.4188 5.0925C31.2876 5.03136 31.1447 4.99968 31 4.99968C30.8553 4.99968 30.7124 5.03136 30.5812 5.0925L25 7.6675V5C25 4.73478 24.8946 4.48043 24.7071 4.29289C24.5196 4.10536 24.2652 4 24 4C23.7348 4 23.4804 4.10536 23.2929 4.29289C23.1054 4.48043 23 4.73478 23 5V8.59125L17.5812 11.0925C17.4076 11.1722 17.2605 11.3001 17.1575 11.461C17.0544 11.6219 16.9998 11.8089 17 12V14H6.5C5.57206 14.001 4.68241 14.3701 4.02626 15.0263C3.3701 15.6824 3.00103 16.5721 3 17.5V52H1C0.734784 52 0.48043 52.1054 0.292893 52.2929C0.105357 52.4804 0 52.7348 0 53V58.5C0.00102566 59.4279 0.370104 60.3176 1.02626 60.9737C1.68241 61.6299 2.57206 61.999 3.5 62H58.5C59.4279 61.999 60.3176 61.6299 60.9737 60.9737C61.6299 60.3176 61.999 59.4279 62 58.5V53C62 52.7348 61.8946 52.4804 61.7071 52.2929C61.5196 52.1054 61.2652 52 61 52ZM23 10.7937V11C23 11.2652 23.1054 11.5196 23.2929 11.7071C23.4804 11.8946 23.7348 12 24 12C24.2652 12 24.5196 11.8946 24.7071 11.7071C24.8946 11.5196 25 11.2652 25 11V9.87L31 7.10125L41.6138 12L31 16.8988L20.3862 12L23 10.7937ZM43 13.5625V25.36L32 30.4375V18.64L43 13.5625ZM19 13.5625L30 18.64V30.4375L19 25.36V13.5625ZM17.5812 26.9075L30.5812 32.9075C30.7124 32.9684 30.8554 33 31 33C31.1446 33 31.2876 32.9684 31.4188 32.9075L44.4188 26.9075C44.5924 26.8278 44.7395 26.6999 44.8425 26.539C44.9456 26.3781 45.0002 26.1911 45 26V19H54V49H8V19H17V26C16.9998 26.1911 17.0544 26.3781 17.1575 26.539C17.2605 26.6999 17.4076 26.8278 17.5812 26.9075ZM5 17.5C5.00033 17.1023 5.15847 16.7209 5.43971 16.4397C5.72094 16.1585 6.10228 16.0003 6.5 16H17V17H7C6.73478 17 6.48043 17.1054 6.29289 17.2929C6.10536 17.4804 6 17.7348 6 18V50C6 50.2652 6.10536 50.5196 6.29289 50.7071C6.48043 50.8946 6.73478 51 7 51H55C55.2652 51 55.5196 50.8946 55.7071 50.7071C55.8946 50.5196 56 50.2652 56 50V18C56 17.7348 55.8946 17.4804 55.7071 17.2929C55.5196 17.1054 55.2652 17 55 17H45V16H55.5C55.8977 16.0003 56.2791 16.1585 56.5603 16.4397C56.8415 16.7209 56.9997 17.1023 57 17.5V52H5V17.5ZM34.7188 54L34.2188 56H27.7812L27.2812 54H34.7188ZM60 58.5C59.9997 58.8977 59.8415 59.2791 59.5603 59.5603C59.2791 59.8415 58.8977 59.9997 58.5 60H3.5C3.10228 59.9997 2.72094 59.8415 2.43971 59.5603C2.15847 59.2791 2.00033 58.8977 2 58.5V54H25.2188L26.03 57.2425C26.0841 57.4588 26.2089 57.6509 26.3847 57.7881C26.5604 57.9254 26.777 58 27 58H35C35.223 58 35.4396 57.9254 35.6153 57.7881C35.7911 57.6509 35.9159 57.4588 35.97 57.2425L36.7812 54H60V58.5Z" fill="#CB8734" stroke="white" stroke-width="0.6" mask="url(#path-2-inside-1_162_2740)"/>
<path d="M17.6949 41.2066L17.6949 41.2066L25.0539 38.3763L25.1501 38.3393V38.2363V35C25.1501 34.7746 25.2396 34.5584 25.3991 34.399C25.5585 34.2396 25.7747 34.15 26.0001 34.15C26.2255 34.15 26.4417 34.2396 26.6011 34.399C26.7605 34.5584 26.8501 34.7746 26.8501 35V37.467V37.6854L27.0539 37.607L30.6949 36.2066L30.6411 36.0666L30.6949 36.2066C30.8914 36.1311 31.1088 36.1311 31.3052 36.2066L31.3587 36.0676L31.3053 36.2066L44.3053 41.2066L44.3591 41.0666L44.3053 41.2066C44.4656 41.2683 44.6036 41.3771 44.7008 41.5188C44.7981 41.6604 44.8502 41.8282 44.8502 42C44.8502 42.1718 44.7981 42.3396 44.7008 42.4812C44.6036 42.6229 44.4656 42.7317 44.3053 42.7934L44.3591 42.9334L44.3053 42.7934L31.3053 47.7934L31.3591 47.9334L31.3052 47.7934C31.1088 47.8689 30.8914 47.8689 30.6949 47.7934L30.6411 47.9334L30.6949 47.7934L17.6949 42.7934L17.6949 42.7934C17.5346 42.7317 17.3966 42.6229 17.2994 42.4812C17.2021 42.3396 17.15 42.1718 17.15 42C17.15 41.8282 17.2021 41.6604 17.2994 41.5188C17.3966 41.3771 17.5346 41.2683 17.6949 41.2066ZM31.0539 37.9314L31.0001 37.9107L30.9462 37.9314L26.9462 39.4699L26.8501 39.5069V39.6099V41C26.8501 41.2254 26.7605 41.4416 26.6011 41.601C26.4417 41.7604 26.2255 41.85 26.0001 41.85C25.7747 41.85 25.5585 41.7604 25.3991 41.601C25.2397 41.4416 25.1501 41.2254 25.1501 41V40.3791V40.1607L24.9463 40.2391L20.7319 41.86L20.3679 42L20.7319 42.14L30.9462 46.0686L31.0001 46.0893L31.0539 46.0686L41.2683 42.14L41.6323 42L41.2683 41.86L31.0539 37.9314Z" fill="#CB8734" stroke="white" stroke-width="0.3"/>
<path d="M44.601 35.601C44.4416 35.7604 44.2254 35.85 44 35.85C43.7746 35.85 43.5584 35.7604 43.399 35.601C43.2396 35.4416 43.15 35.2254 43.15 35V30C43.15 29.7746 43.2396 29.5584 43.399 29.399C43.5584 29.2396 43.7746 29.15 44 29.15C44.2254 29.15 44.4416 29.2396 44.601 29.399C44.7604 29.5584 44.85 29.7746 44.85 30V35C44.85 35.2254 44.7604 35.4416 44.601 35.601Z" fill="#CB8734" stroke="white" stroke-width="0.3"/>
<path d="M39.601 35.601C39.4416 35.7604 39.2254 35.85 39 35.85C38.7746 35.85 38.5584 35.7604 38.399 35.601C38.2396 35.4416 38.15 35.2254 38.15 35V32C38.15 31.7746 38.2396 31.5584 38.399 31.399C38.5584 31.2396 38.7746 31.15 39 31.15C39.2254 31.15 39.4416 31.2396 39.601 31.399C39.7604 31.5584 39.85 31.7746 39.85 32V35C39.85 35.2254 39.7604 35.4416 39.601 35.601Z" fill="#CB8734" stroke="white" stroke-width="0.3"/>
<path d="M17.399 38.601C17.2396 38.4416 17.15 38.2254 17.15 38V33C17.15 32.7746 17.2396 32.5584 17.399 32.399C17.5584 32.2396 17.7746 32.15 18 32.15C18.2254 32.15 18.4416 32.2396 18.601 32.399C18.7604 32.5584 18.85 32.7746 18.85 33V38C18.85 38.2254 18.7604 38.4416 18.601 38.601C18.4416 38.7604 18.2254 38.85 18 38.85C17.7746 38.85 17.5584 38.7604 17.399 38.601Z" fill="#CB8734" stroke="white" stroke-width="0.3"/>
<path d="M31.601 3.60104C31.4416 3.76045 31.2254 3.85 31 3.85C30.7746 3.85 30.5584 3.76045 30.399 3.60104C30.2396 3.44163 30.15 3.22543 30.15 3V1C30.15 0.774566 30.2396 0.558365 30.399 0.398959C30.5584 0.239553 30.7746 0.15 31 0.15C31.2254 0.15 31.4416 0.239553 31.601 0.398959C31.7604 0.558365 31.85 0.774566 31.85 1V3C31.85 3.22543 31.7604 3.44163 31.601 3.60104Z" fill="#CB8734" stroke="white" stroke-width="0.3"/>
<path d="M44.601 7.60104C44.4416 7.76045 44.2254 7.85 44 7.85C43.7746 7.85 43.5584 7.76045 43.399 7.60104C43.2396 7.44163 43.15 7.22543 43.15 7V5C43.15 4.77457 43.2396 4.55837 43.399 4.39896C43.5584 4.23955 43.7746 4.15 44 4.15C44.2254 4.15 44.4416 4.23955 44.601 4.39896C44.7604 4.55837 44.85 4.77457 44.85 5V7C44.85 7.22543 44.7604 7.44163 44.601 7.60104Z" fill="#CB8734" stroke="white" stroke-width="0.3"/>
</svg>
