<svg width="62" height="62" viewBox="0 0 62 62" fill="none" xmlns="http://www.w3.org/2000/svg">
<rect opacity="0.58" width="62" height="62" fill="white"/>
<path d="M38.2291 57.1829L38.2534 57.1859L46.725 58.259L46.751 58.2623L46.7631 58.2856L48.2304 61.1135C48.4961 61.6256 49.217 61.7488 49.6285 61.2937L52.5141 58.101C52.6658 57.933 52.7452 57.7119 52.7346 57.4858L52.5832 54.2291L52.5819 54.2021L52.6038 54.1863C53.4824 53.5485 54.0894 52.5338 54.2283 51.4551L55.3422 42.81L55.351 42.7418L55.4132 42.7711C56.96 43.5008 58.8496 42.4804 59.0697 40.7721L60.5075 29.6125C60.7627 27.6331 59.5615 25.6729 57.6754 25.0128L57.6357 24.9989L57.6426 24.9574C57.9962 22.8202 56.6984 20.6733 54.5258 20.2201L54.4807 20.2106L54.4864 20.1649L55.9805 8.24349C56.2029 6.46851 54.8818 4.77586 53.1049 4.55349L17.3102 0.0757037C17.3102 0.0757026 17.3102 0.0757014 17.3102 0.0757003C15.4982 -0.149939 13.8398 1.13556 13.613 2.94319C13.6108 2.96095 13.6091 2.97875 13.6081 2.99626L13.6079 2.99959L13.6078 2.99958L13.0014 7.83814L12.9959 7.88192H12.9518H5.36206C3.53584 7.88192 2.05 9.36447 2.05 11.1862V46.2476C2.06851 46.8106 2.48462 47.0966 2.90494 47.0997C3.11562 47.1012 3.32523 47.0314 3.48451 46.8906C3.64289 46.7506 3.75441 46.5379 3.76596 46.2474V11.1862C3.76596 10.3101 4.48216 9.59788 5.36206 9.59788H41.4362C42.316 9.59788 43.0322 10.3101 43.0322 11.1862V49.4199V49.4699H42.9822H35.5466C33.7203 49.4699 32.2345 50.9524 32.2345 52.7743V60.1839V60.2339H32.1845H5.36206C4.48216 60.2339 3.76596 59.5217 3.76596 58.6456V51.0849C3.76596 50.6109 3.38182 50.2269 2.90798 50.2269C2.43414 50.2269 2.05 50.6109 2.05 51.0849V58.6456C2.05 60.4675 3.53572 61.95 5.36206 61.95H33.0925C33.3191 61.95 33.5378 61.8569 33.6998 61.6981L38.2291 57.1829ZM38.2291 57.1829L38.2118 57.2001L33.7001 61.6978L38.2291 57.1829ZM50.6426 29.9562L50.6922 29.9626L55.143 30.536L55.1926 30.5424L55.1862 30.592L54.954 32.3937C54.9183 32.6708 54.9986 32.889 55.1387 33.0451C55.2797 33.2023 55.4839 33.2993 55.6988 33.3269C55.9138 33.3546 56.1359 33.3125 56.3122 33.1962C56.4873 33.0807 56.6202 32.8899 56.6559 32.6129L57.4006 26.8339L57.4099 26.7617L57.4739 26.7963C57.787 26.9653 58.0654 27.1979 58.2895 27.4882C58.7102 28.0333 58.8935 28.71 58.8055 29.3931L57.3677 40.5527C57.3331 40.8212 57.1994 41.0105 57.0189 41.1241C56.8398 41.2369 56.6178 41.2733 56.4068 41.2444C56.1958 41.2154 55.9916 41.1206 55.8486 40.9653C55.7047 40.809 55.625 40.5937 55.6615 40.3311L50.6426 29.9562ZM50.6426 29.9562L50.6362 30.0058L47.9763 50.6494C47.8164 51.891 48.7167 53.0577 49.9583 53.2176C51.1998 53.3776 52.3662 52.4774 52.5263 51.2358L54.3383 37.1732C54.3739 36.8962 54.5069 36.7055 54.682 36.59C54.8582 36.4737 55.0804 36.4315 55.2953 36.4592C55.5103 36.4868 55.7145 36.5838 55.8555 36.7409C55.9956 36.897 56.0759 37.1152 56.0402 37.3923L55.6615 40.3305L50.6426 29.9562ZM50.9901 57.2277L51.0039 57.2124L51.003 57.1918L50.8988 54.9552L50.8963 54.9L50.8416 54.908C50.1089 55.016 49.3562 54.9202 48.6747 54.63L48.6239 54.6084L48.6074 54.6611L47.9402 56.797L47.9341 56.8167L47.9435 56.835L49.1509 59.1619L49.1841 59.2259L49.2324 59.1724L50.9901 57.2277ZM55.3623 28.8339L55.4119 28.8403L55.4183 28.7907L55.9793 24.4365C56.1409 23.1822 55.2519 22.0301 53.9974 21.8682C53.39 21.79 52.7879 21.9531 52.303 22.3274C51.818 22.7017 51.5077 23.2426 51.4293 23.8501L50.8683 28.2045L50.8619 28.254L50.9115 28.2604L55.3623 28.8339ZM14.7323 7.8257L14.7253 7.88192H14.7819H41.4361C43.2624 7.88192 44.748 9.36446 44.7479 11.1862V50.3279C44.7479 50.5634 44.6513 50.7598 44.4946 50.9366L39.8407 55.5759L39.7683 55.6481L39.8698 55.6609L46.2035 56.4632L46.245 56.4685L46.2575 56.4285L47.1619 53.5327L47.17 53.5069L47.1529 53.4861C46.4636 52.6454 46.1353 51.5088 46.2743 50.4301L49.0503 28.886L49.0507 28.886V28.8826L49.7274 23.6311C49.8642 22.5687 50.4064 21.6234 51.2545 20.9689C51.6948 20.6292 52.1902 20.3899 52.7133 20.2566L52.7463 20.2482L52.7505 20.2144L54.2776 8.0299L54.228 8.02369L54.2776 8.02989C54.3857 7.16631 53.7523 6.36367 52.8916 6.25605L17.0972 1.77863C17.0972 1.77863 17.0972 1.77863 17.0972 1.77863C16.2359 1.67055 15.4471 2.27004 15.3207 3.12039L15.3206 3.12037L15.3203 3.1241C15.3191 3.13992 15.3177 3.1554 15.3157 3.17092C15.3157 3.17092 15.3157 3.17093 15.3157 3.17094L14.7323 7.8257ZM41.7285 51.2713L41.8142 51.1859H41.6932H35.5464C34.6665 51.1859 33.9503 51.8983 33.9504 52.7743V58.9046V59.0251L34.0357 58.9401L41.7285 51.2713Z" fill="#CB8734" stroke="white" stroke-width="0.1"/>
<path d="M37.5834 19.1742H37.6334V19.1242V14.7852V14.7352H37.5834H9.09232H9.04232V14.7852V19.1242V19.1742H9.09232H37.5834ZM39.3493 13.8772V20.0322C39.3493 20.5062 38.9653 20.8902 38.4914 20.8902H8.18435C7.71051 20.8902 7.32637 20.5062 7.32637 20.0322V13.8772C7.32637 13.4033 7.71051 13.0192 8.18435 13.0192H38.4914C38.9653 13.0192 39.3493 13.4033 39.3493 13.8772Z" fill="#CB8734" stroke="white" stroke-width="0.1"/>
<path d="M9.16589 27.3324C8.02991 27.2926 8.02929 25.6566 9.1659 25.6164H37.6323C38.7684 25.6561 38.7689 27.2923 37.6323 27.3324H9.16589Z" fill="#CB8734" stroke="white" stroke-width="0.1"/>
<path d="M18.8758 33.5067C17.7399 33.4669 17.7392 31.8309 18.8759 31.7907H37.6322C38.7684 31.8305 38.7688 33.4666 37.6322 33.5067H18.8758Z" fill="#CB8734" stroke="white" stroke-width="0.1"/>
<path d="M37.6331 37.965C38.1071 37.965 38.4911 38.3491 38.4911 38.823C38.4911 39.297 38.1071 39.681 37.6331 39.681H18.8758C17.7399 39.6413 17.7392 38.0052 18.8759 37.965H37.6331Z" fill="#CB8734" stroke="white" stroke-width="0.1"/>
<path d="M10.3681 41.3176L10.3633 41.3667C10.3194 41.8151 10.4253 42.1372 10.5975 42.3431C10.7698 42.549 11.012 42.6435 11.2519 42.6312C11.4919 42.6188 11.7301 42.4995 11.8929 42.2755C12.0555 42.0518 12.1454 41.7198 12.08 41.2791L12.0736 41.2356L12.1159 41.2237C13.4175 40.855 14.2542 39.7222 14.4434 38.6039C14.6931 37.1277 13.8989 35.7942 12.4641 35.2837C12.3633 35.2479 12.2394 35.2091 12.1016 35.166C11.7472 35.055 11.3007 34.9152 10.9182 34.7222C10.6516 34.5877 10.41 34.4247 10.248 34.2225C10.0846 34.0186 10.0026 33.7749 10.0574 33.4855M10.3681 41.3176L10.7678 32.6968L10.7533 32.649C10.3298 32.7773 10.1173 33.1685 10.0574 33.4855M10.3681 41.3176L10.319 41.3122M10.3681 41.3176L10.319 41.3122M10.0574 33.4855L10.1065 33.4948L10.0574 33.4855C10.0574 33.4855 10.0574 33.4855 10.0574 33.4855ZM10.319 41.3122C9.68487 41.2422 9.16253 41.0529 8.45098 40.5845C8.05517 40.3239 7.94557 39.7918 8.20606 39.396M10.319 41.3122L8.20606 39.396M12.4299 32.9179L12.4299 32.9179L12.4302 32.9182L12.4312 32.9196L12.436 32.9258C12.4402 32.9313 12.4468 32.9395 12.4554 32.9498C12.4728 32.9704 12.4986 32.9992 12.532 33.0316C12.5992 33.0968 12.6959 33.1753 12.8156 33.2314C12.9349 33.2874 13.0761 33.3208 13.2341 33.2974C13.3919 33.2741 13.571 33.1934 13.765 33.0137C13.9424 32.8492 14.0174 32.6845 14.0343 32.5313C14.0513 32.3772 14.0099 32.2291 13.9447 32.0983C13.8795 31.9675 13.7915 31.8564 13.7193 31.7776C13.6833 31.7383 13.6515 31.7074 13.6287 31.6864C13.6174 31.6759 13.6083 31.6679 13.6022 31.6626L13.5953 31.6566L13.5936 31.6552L13.5932 31.6549L13.5932 31.6549L12.4299 32.9179ZM12.4299 32.9179L12.4299 32.9179L12.4299 32.9179ZM11.2157 39.6325C12.1199 39.6264 12.6453 38.9447 12.7515 38.3176L12.7515 38.3176C12.7778 38.1619 12.7971 37.8916 12.6916 37.6174C12.5851 37.3408 12.3535 37.0656 11.889 36.9004C10.527 36.4159 9.74437 36.0365 9.17988 35.591C8.5018 35.0556 8.18948 34.1279 8.37129 33.1664C8.56336 32.1509 9.32985 31.2701 10.3273 30.9878L10.3688 30.9761L10.3632 30.9333C10.3087 30.5121 10.4024 30.197 10.5651 29.986C10.728 29.7746 10.963 29.6637 11.1995 29.655C11.436 29.6464 11.674 29.74 11.8439 29.9389C12.0136 30.1376 12.1189 30.4459 12.0798 30.8727L12.0758 30.9166L12.1188 30.9261C12.796 31.0757 13.3138 31.3958 13.5909 31.6529L13.5908 31.6529L13.5932 31.6549L11.2153 39.5825M11.2157 39.6325L11.2153 39.5825M11.2157 39.6325C11.2157 39.6325 11.2157 39.6325 11.2157 39.6325L11.2153 39.5825M11.2157 39.6325C10.7851 39.6356 10.4964 39.6265 10.2317 39.5602C9.96585 39.4937 9.72746 39.3702 9.39455 39.1511M11.2153 39.5825C10.3535 39.5888 10.0844 39.5453 9.42202 39.1093M9.39455 39.1511L9.42202 39.1093M9.39455 39.1511C8.99872 38.8909 8.46677 39.0002 8.20606 39.396M9.39455 39.1511C9.39455 39.1511 9.39454 39.1511 9.39453 39.1511L9.42202 39.1093M9.42202 39.1093L8.20606 39.396" fill="#CB8734" stroke="white" stroke-width="0.1"/>
<path d="M26.1607 54.2238C27.2967 54.2636 27.2973 55.8996 26.1607 55.9398H9.16589C8.02991 55.9001 8.02929 54.264 9.1659 54.2238H26.1607Z" fill="#CB8734" stroke="white" stroke-width="0.1"/>
</svg>
