<svg width="62" height="62" viewBox="0 0 62 62" fill="none" xmlns="http://www.w3.org/2000/svg">
<rect opacity="0.58" width="62" height="62" fill="white"/>
<mask id="path-2-inside-1_162_2717" fill="white">
<path d="M16.2001 19.9842H7.7453C7.19275 19.9842 6.68815 20.2143 6.32075 20.5781C5.95347 20.9454 5.72678 21.4498 5.72678 22.0026V45.5026C5.72678 46.0038 5.32172 46.4123 4.82064 46.4123C4.31604 46.4123 3.91098 46.0038 3.91098 45.5026V22.0026C3.91098 20.9488 4.34341 19.9911 5.03691 19.2941C5.73042 18.6009 6.69154 18.1683 7.7453 18.1683H16.2V13.3421C16.2 12.8409 16.6084 12.4325 17.1096 12.4325C17.6108 12.4325 18.0193 12.8409 18.0193 13.3421V41.4901H45.3915C45.3915 29.1529 45.3915 16.8159 45.3915 4.47549L42.6487 2.1035L39.5936 4.75013C39.2436 5.05214 38.7322 5.04172 38.399 4.73972L35.351 2.1035L32.2958 4.75001C31.9491 5.05202 31.4342 5.0416 31.1012 4.73959L28.0564 2.10338L24.9979 4.74989C24.6512 5.0519 24.1362 5.04148 23.8032 4.73947L20.7584 2.10326L18.0192 4.47525V9.22601C18.0192 9.72722 17.6107 10.1357 17.1095 10.1357C16.6083 10.1357 16.1998 9.72722 16.1998 9.22601V4.06704C16.1998 3.81298 16.3097 3.55905 16.5157 3.38044L20.1543 0.229205C20.4873 -0.0695339 21.0022 -0.0797058 21.3488 0.219033L24.4074 2.86893L27.452 0.229205C27.7849 -0.0695339 28.2998 -0.0797058 28.6465 0.219033L31.7051 2.86893L34.75 0.229205C35.0829 -0.0695339 35.5978 -0.0797058 35.9445 0.219033L38.9996 2.86893L42.0446 0.229205C42.3809 -0.0695339 42.8924 -0.0797058 43.2427 0.219033L46.8366 3.33575C47.0598 3.50056 47.2073 3.76479 47.2073 4.06704V18.1683H55.0339C56.0876 18.1683 57.049 18.6009 57.7422 19.2941C58.4356 19.9879 58.8682 20.9488 58.8682 22.0026V52.8246H59.129C59.6713 52.8246 60.1382 52.9206 60.5261 53.0958C60.9276 53.281 61.2399 53.5487 61.4563 53.8886C61.6692 54.2286 61.779 54.6199 61.779 55.049C61.779 55.4813 61.6623 55.9619 61.4323 56.4701L59.9528 59.7106C59.6371 60.4039 59.2629 60.9565 58.7481 61.3548C58.1989 61.7769 57.5433 62 56.7022 62H6.07711C5.23611 62 4.58051 61.7769 4.03111 61.3548C3.51621 60.9565 3.14203 60.4039 2.82634 59.7106L1.34681 56.4701C1.11334 55.9619 1 55.4848 1 55.0522C1 54.6199 1.10995 54.2284 1.32284 53.8886C1.53911 53.5487 1.85141 53.281 2.25308 53.0958C2.64095 52.9206 3.10788 52.8246 3.65014 52.8246H3.91098V49.6184C3.91098 49.1172 4.31604 48.7087 4.82064 48.7087C5.32185 48.7087 5.72678 49.1172 5.72678 49.6184V52.8246H23.3124C23.8136 52.8246 24.2221 53.2298 24.2221 53.7309C24.2221 54.1736 24.4042 54.5752 24.6959 54.8671C24.9878 55.1587 25.3894 55.3406 25.8288 55.3406H36.9506C37.39 55.3406 37.7916 55.1587 38.0834 54.8671C38.3752 54.5752 38.5571 54.1736 38.5571 53.7309C38.5571 53.2296 38.9655 52.8246 39.4667 52.8246H57.0524V22.0026C57.0524 21.45 56.8258 20.9455 56.4585 20.5781C56.0912 20.2143 55.5867 19.9842 55.034 19.9842H47.2074V21.7247H55.034C55.5352 21.7247 55.9401 22.1297 55.9401 22.6308V26.7465C55.9401 27.2477 55.5351 27.6562 55.034 27.6562C54.5328 27.6562 54.1243 27.2477 54.1243 26.7465V23.5403H47.2074V37.92H48.7556C49.4902 37.92 50.1561 38.222 50.64 38.7026C51.1206 39.1865 51.4193 39.8525 51.4193 40.5835V44.2119C51.4193 44.9465 51.1206 45.6122 50.64 46.0965C50.1561 46.5771 49.4902 46.8756 48.7556 46.8756H14.6519C13.9173 46.8756 13.2514 46.5771 12.7708 46.0965C12.2868 45.6123 11.9882 44.9466 11.9882 44.2119V40.5835C11.9882 39.8525 12.2868 39.1865 12.7708 38.7026C13.2514 38.222 13.9173 37.92 14.6519 37.92H16.2001V23.5404H9.2832V49.2684H54.1243V30.8624C54.1243 30.3579 54.5328 29.9527 55.034 29.9527C55.5352 29.9527 55.9401 30.3579 55.9401 30.8624V50.1781C55.9401 50.6793 55.5351 51.0843 55.034 51.0843H8.37354C7.87233 51.0843 7.46739 50.6792 7.46739 50.1781V22.6309C7.46739 22.1297 7.87245 21.7248 8.37354 21.7248H16.2001V19.9842ZM22.2449 32.4207C21.7437 32.4207 21.3387 32.0158 21.3387 31.5147C21.3387 31.01 21.7438 30.605 22.2449 30.605H41.1624C41.6636 30.605 42.0721 31.01 42.0721 31.5147C42.0721 32.0159 41.6636 32.4207 41.1624 32.4207H22.2449ZM22.2449 39.4442C21.7437 39.4442 21.3387 39.039 21.3387 38.5379C21.3387 38.0334 21.7438 37.628 22.2449 37.628H37.0671C37.5683 37.628 37.9733 38.0334 37.9733 38.5379C37.9733 39.0391 37.5682 39.4442 37.0671 39.4442H22.2449ZM22.2449 35.9324C21.7437 35.9324 21.3387 35.5273 21.3387 35.0262C21.3387 34.5217 21.7438 34.1165 22.2449 34.1165H41.1624C41.6636 34.1165 42.0721 34.5217 42.0721 35.0262C42.0721 35.5274 41.6636 35.9324 41.1624 35.9324H22.2449ZM35.344 10.7402C35.7181 11.0764 35.7456 11.6498 35.4126 12.0204C35.0762 12.3946 34.503 12.4219 34.1323 12.0889C34.1289 12.0856 33.5383 11.5433 32.5153 11.3614V16.8054C32.8517 16.9359 33.2088 17.0662 33.5828 17.1968C35.1414 17.7493 36.0819 18.7996 36.4971 20.015C36.758 20.7872 36.8027 21.6214 36.6483 22.4245C36.4971 23.2176 36.1574 23.9864 35.6494 24.6456C34.9182 25.5896 33.8508 26.3069 32.5152 26.5403V27.9442C32.5152 28.4454 32.1101 28.8505 31.6056 28.8505C31.1043 28.8505 30.6994 28.4453 30.6994 27.9442V26.6092C30.1879 26.5886 29.7418 26.5372 29.2954 26.4273C28.5849 26.2523 27.9224 25.9434 27.0778 25.3906C26.6591 25.116 26.5424 24.5531 26.817 24.1343C27.0916 23.7154 27.6546 23.5988 28.0734 23.8698C28.7393 24.306 29.2337 24.5462 29.7313 24.6663C30.0265 24.7418 30.3389 24.7797 30.6993 24.7966V18.0239C29.8995 17.6705 29.0928 17.2585 28.4027 16.7195C27.8501 16.2872 27.4794 15.7002 27.2837 15.0515C27.0915 14.4165 27.0676 13.7162 27.2014 13.0364C27.3352 12.3637 27.6235 11.7046 28.0629 11.145C28.5573 10.5135 29.2369 10.0123 30.0916 9.7547C30.2976 9.6927 30.5001 9.64148 30.6993 9.60358V8.3373C30.6993 7.83609 31.1043 7.42764 31.6054 7.42764C32.11 7.42764 32.5151 7.83609 32.5151 8.3373V9.53528C34.2731 9.75131 35.3406 10.7367 35.344 10.7402ZM30.6996 11.4679C30.6688 11.4748 30.6379 11.485 30.6069 11.4918C30.1367 11.636 29.7625 11.9107 29.4914 12.2607C29.2339 12.5869 29.0622 12.9781 28.9833 13.3833C28.9043 13.7816 28.9146 14.1796 29.0212 14.5332C29.1139 14.8388 29.2786 15.1065 29.5155 15.292C29.8381 15.546 30.2328 15.7863 30.6996 16.0197V11.4679ZM32.5155 18.7417V24.6872C33.2294 24.488 33.8062 24.0694 34.2148 23.5405C34.5476 23.108 34.7708 22.6068 34.8669 22.0919C34.9631 21.5874 34.939 21.069 34.7777 20.5955C34.3933 19.4661 33.5349 19.1122 32.5155 18.7417ZM47.2073 39.7359V42.3997C47.2073 42.9009 46.7989 43.306 46.2976 43.306H17.1096C16.6084 43.306 16.2 42.9008 16.2 42.3997V39.7359H14.6518C14.4183 39.7359 14.2091 39.8322 14.0544 39.9866C13.9 40.141 13.8039 40.3538 13.8039 40.5838V44.2121C13.8039 44.4456 13.9 44.6585 14.0544 44.8129C14.2089 44.9638 14.4183 45.06 14.6518 45.06H48.7555C48.989 45.06 49.2017 44.9638 49.3529 44.8129C49.5072 44.6585 49.6033 44.4456 49.6033 44.2121V40.5838C49.6033 40.354 49.5072 40.1411 49.3529 39.9866C49.2017 39.8322 48.989 39.7359 48.7555 39.7359H47.2073ZM6.07711 60.1809H56.702C57.1175 60.1809 57.4195 60.0918 57.6392 59.9201C57.8966 59.7209 58.1095 59.3948 58.3085 58.9588L59.7845 55.7184C59.8704 55.5365 60.0453 55.0491 59.9218 54.8534C59.8017 54.6645 59.3211 54.6405 59.1289 54.6405H40.2528C40.0915 55.2204 39.7824 55.7388 39.3671 56.1509C38.7491 56.7723 37.8909 57.1568 36.9504 57.1568H25.8285C24.888 57.1568 24.0297 56.7723 23.4085 56.1509C22.9966 55.739 22.6877 55.2172 22.5264 54.6405H3.65014C3.45797 54.6405 2.97734 54.6644 2.85722 54.8534C2.73358 55.049 2.90881 55.5365 2.99454 55.7184L4.47043 58.9588C4.66963 59.3948 4.8824 59.7209 5.13645 59.9201C5.35951 60.0917 5.66164 60.1809 6.07711 60.1809Z"/>
</mask>
<path d="M16.2001 19.9842H7.7453C7.19275 19.9842 6.68815 20.2143 6.32075 20.5781C5.95347 20.9454 5.72678 21.4498 5.72678 22.0026V45.5026C5.72678 46.0038 5.32172 46.4123 4.82064 46.4123C4.31604 46.4123 3.91098 46.0038 3.91098 45.5026V22.0026C3.91098 20.9488 4.34341 19.9911 5.03691 19.2941C5.73042 18.6009 6.69154 18.1683 7.7453 18.1683H16.2V13.3421C16.2 12.8409 16.6084 12.4325 17.1096 12.4325C17.6108 12.4325 18.0193 12.8409 18.0193 13.3421V41.4901H45.3915C45.3915 29.1529 45.3915 16.8159 45.3915 4.47549L42.6487 2.1035L39.5936 4.75013C39.2436 5.05214 38.7322 5.04172 38.399 4.73972L35.351 2.1035L32.2958 4.75001C31.9491 5.05202 31.4342 5.0416 31.1012 4.73959L28.0564 2.10338L24.9979 4.74989C24.6512 5.0519 24.1362 5.04148 23.8032 4.73947L20.7584 2.10326L18.0192 4.47525V9.22601C18.0192 9.72722 17.6107 10.1357 17.1095 10.1357C16.6083 10.1357 16.1998 9.72722 16.1998 9.22601V4.06704C16.1998 3.81298 16.3097 3.55905 16.5157 3.38044L20.1543 0.229205C20.4873 -0.0695339 21.0022 -0.0797058 21.3488 0.219033L24.4074 2.86893L27.452 0.229205C27.7849 -0.0695339 28.2998 -0.0797058 28.6465 0.219033L31.7051 2.86893L34.75 0.229205C35.0829 -0.0695339 35.5978 -0.0797058 35.9445 0.219033L38.9996 2.86893L42.0446 0.229205C42.3809 -0.0695339 42.8924 -0.0797058 43.2427 0.219033L46.8366 3.33575C47.0598 3.50056 47.2073 3.76479 47.2073 4.06704V18.1683H55.0339C56.0876 18.1683 57.049 18.6009 57.7422 19.2941C58.4356 19.9879 58.8682 20.9488 58.8682 22.0026V52.8246H59.129C59.6713 52.8246 60.1382 52.9206 60.5261 53.0958C60.9276 53.281 61.2399 53.5487 61.4563 53.8886C61.6692 54.2286 61.779 54.6199 61.779 55.049C61.779 55.4813 61.6623 55.9619 61.4323 56.4701L59.9528 59.7106C59.6371 60.4039 59.2629 60.9565 58.7481 61.3548C58.1989 61.7769 57.5433 62 56.7022 62H6.07711C5.23611 62 4.58051 61.7769 4.03111 61.3548C3.51621 60.9565 3.14203 60.4039 2.82634 59.7106L1.34681 56.4701C1.11334 55.9619 1 55.4848 1 55.0522C1 54.6199 1.10995 54.2284 1.32284 53.8886C1.53911 53.5487 1.85141 53.281 2.25308 53.0958C2.64095 52.9206 3.10788 52.8246 3.65014 52.8246H3.91098V49.6184C3.91098 49.1172 4.31604 48.7087 4.82064 48.7087C5.32185 48.7087 5.72678 49.1172 5.72678 49.6184V52.8246H23.3124C23.8136 52.8246 24.2221 53.2298 24.2221 53.7309C24.2221 54.1736 24.4042 54.5752 24.6959 54.8671C24.9878 55.1587 25.3894 55.3406 25.8288 55.3406H36.9506C37.39 55.3406 37.7916 55.1587 38.0834 54.8671C38.3752 54.5752 38.5571 54.1736 38.5571 53.7309C38.5571 53.2296 38.9655 52.8246 39.4667 52.8246H57.0524V22.0026C57.0524 21.45 56.8258 20.9455 56.4585 20.5781C56.0912 20.2143 55.5867 19.9842 55.034 19.9842H47.2074V21.7247H55.034C55.5352 21.7247 55.9401 22.1297 55.9401 22.6308V26.7465C55.9401 27.2477 55.5351 27.6562 55.034 27.6562C54.5328 27.6562 54.1243 27.2477 54.1243 26.7465V23.5403H47.2074V37.92H48.7556C49.4902 37.92 50.1561 38.222 50.64 38.7026C51.1206 39.1865 51.4193 39.8525 51.4193 40.5835V44.2119C51.4193 44.9465 51.1206 45.6122 50.64 46.0965C50.1561 46.5771 49.4902 46.8756 48.7556 46.8756H14.6519C13.9173 46.8756 13.2514 46.5771 12.7708 46.0965C12.2868 45.6123 11.9882 44.9466 11.9882 44.2119V40.5835C11.9882 39.8525 12.2868 39.1865 12.7708 38.7026C13.2514 38.222 13.9173 37.92 14.6519 37.92H16.2001V23.5404H9.2832V49.2684H54.1243V30.8624C54.1243 30.3579 54.5328 29.9527 55.034 29.9527C55.5352 29.9527 55.9401 30.3579 55.9401 30.8624V50.1781C55.9401 50.6793 55.5351 51.0843 55.034 51.0843H8.37354C7.87233 51.0843 7.46739 50.6792 7.46739 50.1781V22.6309C7.46739 22.1297 7.87245 21.7248 8.37354 21.7248H16.2001V19.9842ZM22.2449 32.4207C21.7437 32.4207 21.3387 32.0158 21.3387 31.5147C21.3387 31.01 21.7438 30.605 22.2449 30.605H41.1624C41.6636 30.605 42.0721 31.01 42.0721 31.5147C42.0721 32.0159 41.6636 32.4207 41.1624 32.4207H22.2449ZM22.2449 39.4442C21.7437 39.4442 21.3387 39.039 21.3387 38.5379C21.3387 38.0334 21.7438 37.628 22.2449 37.628H37.0671C37.5683 37.628 37.9733 38.0334 37.9733 38.5379C37.9733 39.0391 37.5682 39.4442 37.0671 39.4442H22.2449ZM22.2449 35.9324C21.7437 35.9324 21.3387 35.5273 21.3387 35.0262C21.3387 34.5217 21.7438 34.1165 22.2449 34.1165H41.1624C41.6636 34.1165 42.0721 34.5217 42.0721 35.0262C42.0721 35.5274 41.6636 35.9324 41.1624 35.9324H22.2449ZM35.344 10.7402C35.7181 11.0764 35.7456 11.6498 35.4126 12.0204C35.0762 12.3946 34.503 12.4219 34.1323 12.0889C34.1289 12.0856 33.5383 11.5433 32.5153 11.3614V16.8054C32.8517 16.9359 33.2088 17.0662 33.5828 17.1968C35.1414 17.7493 36.0819 18.7996 36.4971 20.015C36.758 20.7872 36.8027 21.6214 36.6483 22.4245C36.4971 23.2176 36.1574 23.9864 35.6494 24.6456C34.9182 25.5896 33.8508 26.3069 32.5152 26.5403V27.9442C32.5152 28.4454 32.1101 28.8505 31.6056 28.8505C31.1043 28.8505 30.6994 28.4453 30.6994 27.9442V26.6092C30.1879 26.5886 29.7418 26.5372 29.2954 26.4273C28.5849 26.2523 27.9224 25.9434 27.0778 25.3906C26.6591 25.116 26.5424 24.5531 26.817 24.1343C27.0916 23.7154 27.6546 23.5988 28.0734 23.8698C28.7393 24.306 29.2337 24.5462 29.7313 24.6663C30.0265 24.7418 30.3389 24.7797 30.6993 24.7966V18.0239C29.8995 17.6705 29.0928 17.2585 28.4027 16.7195C27.8501 16.2872 27.4794 15.7002 27.2837 15.0515C27.0915 14.4165 27.0676 13.7162 27.2014 13.0364C27.3352 12.3637 27.6235 11.7046 28.0629 11.145C28.5573 10.5135 29.2369 10.0123 30.0916 9.7547C30.2976 9.6927 30.5001 9.64148 30.6993 9.60358V8.3373C30.6993 7.83609 31.1043 7.42764 31.6054 7.42764C32.11 7.42764 32.5151 7.83609 32.5151 8.3373V9.53528C34.2731 9.75131 35.3406 10.7367 35.344 10.7402ZM30.6996 11.4679C30.6688 11.4748 30.6379 11.485 30.6069 11.4918C30.1367 11.636 29.7625 11.9107 29.4914 12.2607C29.2339 12.5869 29.0622 12.9781 28.9833 13.3833C28.9043 13.7816 28.9146 14.1796 29.0212 14.5332C29.1139 14.8388 29.2786 15.1065 29.5155 15.292C29.8381 15.546 30.2328 15.7863 30.6996 16.0197V11.4679ZM32.5155 18.7417V24.6872C33.2294 24.488 33.8062 24.0694 34.2148 23.5405C34.5476 23.108 34.7708 22.6068 34.8669 22.0919C34.9631 21.5874 34.939 21.069 34.7777 20.5955C34.3933 19.4661 33.5349 19.1122 32.5155 18.7417ZM47.2073 39.7359V42.3997C47.2073 42.9009 46.7989 43.306 46.2976 43.306H17.1096C16.6084 43.306 16.2 42.9008 16.2 42.3997V39.7359H14.6518C14.4183 39.7359 14.2091 39.8322 14.0544 39.9866C13.9 40.141 13.8039 40.3538 13.8039 40.5838V44.2121C13.8039 44.4456 13.9 44.6585 14.0544 44.8129C14.2089 44.9638 14.4183 45.06 14.6518 45.06H48.7555C48.989 45.06 49.2017 44.9638 49.3529 44.8129C49.5072 44.6585 49.6033 44.4456 49.6033 44.2121V40.5838C49.6033 40.354 49.5072 40.1411 49.3529 39.9866C49.2017 39.8322 48.989 39.7359 48.7555 39.7359H47.2073ZM6.07711 60.1809H56.702C57.1175 60.1809 57.4195 60.0918 57.6392 59.9201C57.8966 59.7209 58.1095 59.3948 58.3085 58.9588L59.7845 55.7184C59.8704 55.5365 60.0453 55.0491 59.9218 54.8534C59.8017 54.6645 59.3211 54.6405 59.1289 54.6405H40.2528C40.0915 55.2204 39.7824 55.7388 39.3671 56.1509C38.7491 56.7723 37.8909 57.1568 36.9504 57.1568H25.8285C24.888 57.1568 24.0297 56.7723 23.4085 56.1509C22.9966 55.739 22.6877 55.2172 22.5264 54.6405H3.65014C3.45797 54.6405 2.97734 54.6644 2.85722 54.8534C2.73358 55.049 2.90881 55.5365 2.99454 55.7184L4.47043 58.9588C4.66963 59.3948 4.8824 59.7209 5.13645 59.9201C5.35951 60.0917 5.66164 60.1809 6.07711 60.1809Z" fill="#CB8734" stroke="white" stroke-width="0.4" mask="url(#path-2-inside-1_162_2717)"/>
</svg>
