<svg width="62" height="62" viewBox="0 0 62 62" fill="none" xmlns="http://www.w3.org/2000/svg">
<rect opacity="0.58" width="62" height="62" fill="white"/>
<mask id="path-2-inside-1_162_2705" fill="white">
<path d="M61.092 22.0686H59.9942V20.9694C59.9942 20.4678 59.5876 20.0612 59.0859 20.0612C58.5843 20.0612 58.1777 20.4678 58.1777 20.9694V22.0686H57.0799C56.5782 22.0686 56.1717 22.4751 56.1717 22.9768V25.9847C56.1717 26.0371 56.1291 26.0796 56.0768 26.0796H49.0553C48.5536 26.0796 48.1471 26.4861 48.1471 26.9878V28.0856H47.0492C46.5475 28.0856 46.141 28.4921 46.141 28.9938C46.141 29.4955 46.5475 29.902 47.0492 29.902H48.1471V31C48.1471 31.5017 48.5536 31.9082 49.0553 31.9082H56.0767C56.1291 31.9082 56.1716 31.9508 56.1716 32.003V48.0519C56.1716 48.1043 56.129 48.1468 56.0767 48.1468H38.0216C37.9693 48.1468 37.9268 48.1041 37.9268 48.0519V43.0367C37.9268 42.535 37.5202 42.1285 37.0186 42.1285H35.9207V41.0307C35.9207 40.529 35.5142 40.1225 35.0125 40.1225C34.5108 40.1225 34.1043 40.529 34.1043 41.0307V42.1285H33.0064C32.5047 42.1285 32.0982 42.535 32.0982 43.0367V48.0521C32.0982 48.1044 32.0555 48.1469 32.0033 48.1469H13.9483C13.8959 48.1469 13.8534 48.1042 13.8534 48.0521V32.003C13.8534 31.9507 13.8961 31.9082 13.9483 31.9082H32.0033C32.0556 31.9082 32.0982 31.9508 32.0982 32.003V35.0122C32.0982 35.5139 32.5047 35.9204 33.0064 35.9204H34.1043V37.0184C34.1043 37.5201 34.5108 37.9266 35.0125 37.9266C35.5142 37.9266 35.9207 37.5201 35.9207 37.0184V35.9204H37.0186C37.5202 35.9204 37.9268 35.5139 37.9268 35.0122V32.003C37.9268 31.9507 37.9694 31.9082 38.0216 31.9082H41.0308C41.5324 31.9082 41.939 31.5017 41.939 31V29.9022H43.0369C43.5386 29.9022 43.9451 29.4957 43.9451 28.994C43.9451 28.4923 43.5386 28.0858 43.0369 28.0858H41.939V26.9879C41.939 26.4862 41.5324 26.0797 41.0308 26.0797H38.0216C37.9693 26.0797 37.9268 26.0371 37.9268 25.9848V22.9756C37.9268 22.4739 37.5202 22.0674 37.0186 22.0674H35.9207V20.9696C35.9207 20.4679 35.5142 20.0614 35.0125 20.0614C34.5108 20.0614 34.1043 20.4679 34.1043 20.9696V22.0674H33.0064C32.5047 22.0674 32.0982 22.4739 32.0982 22.9756V25.9848C32.0982 26.0372 32.0555 26.0797 32.0033 26.0797H23.0443C22.5426 26.0797 22.1361 26.4862 22.1361 26.9879C22.1361 27.4896 22.5426 27.8961 23.0443 27.8961H32.0032C33.0571 27.8961 33.9144 27.0387 33.9144 25.9848V23.8838H36.1104V25.9848C36.1104 27.0387 36.9677 27.8961 38.0216 27.8961H40.1226V30.0918H38.0216C36.9677 30.0918 36.1104 30.9491 36.1104 32.003V34.104H33.9144V32.003C33.9144 30.9491 33.0571 30.0918 32.0032 30.0918H13.9481C12.8943 30.0918 12.0369 30.9491 12.0369 32.003V48.0519C12.0369 49.1058 12.8943 49.9632 13.9481 49.9632H32.0032C33.0571 49.9632 33.9144 49.1058 33.9144 48.0519V43.9449H36.1104V48.0521C36.1104 49.1059 36.9677 49.9633 38.0216 49.9633H56.0767C57.1305 49.9633 57.988 49.1059 57.988 48.0521V32.003C57.988 30.9491 57.1305 30.0918 56.0767 30.0918H49.9635V27.896H56.0767C57.1305 27.896 57.988 27.0385 57.988 25.9847V23.885H60.1838V52.0643C60.1838 52.1166 60.1412 52.1591 60.089 52.1591H9.93594C9.88363 52.1591 9.84112 52.1165 9.84112 52.0643V1.91122C9.84112 1.85891 9.88375 1.81641 9.93594 1.81641H49.245C49.7467 1.81641 50.1532 1.40989 50.1532 0.908203C50.1532 0.406512 49.7467 0 49.245 0H9.93594C9.72741 0 9.52713 0.0347539 9.33907 0.0967539C9.21676 0.0353594 9.07908 0 8.93292 0H6.92676C6.42507 0 6.01855 0.406512 6.01855 0.908203C6.01855 1.40989 6.42507 1.81641 6.92676 1.81641H8.02944C8.02786 1.84801 8.02459 1.87925 8.02459 1.91122V52.0643C8.02459 52.0962 8.02786 52.1275 8.02944 52.1591H6.92676C6.42507 52.1591 6.01855 52.5656 6.01855 53.0673C6.01855 53.569 6.42507 53.9755 6.92676 53.9755H8.02459V55.0733C8.02459 55.575 8.43111 55.9815 8.9328 55.9815C9.43449 55.9815 9.841 55.575 9.841 55.0733V53.9706C9.87261 53.9722 9.90385 53.9755 9.93582 53.9755H60.0889C60.1208 53.9755 60.1521 53.9722 60.1837 53.9706V55.0733C60.1837 55.575 60.5902 55.9815 61.0919 55.9815C61.5936 55.9815 62.0001 55.575 62.0001 55.0733V53.0673C62.0001 52.921 61.9647 52.7834 61.9033 52.661C61.9653 52.4729 62.0001 52.2727 62.0001 52.0641V22.9768C62.0002 22.4752 61.5937 22.0686 61.092 22.0686Z"/>
</mask>
<path d="M61.092 22.0686H59.9942V20.9694C59.9942 20.4678 59.5876 20.0612 59.0859 20.0612C58.5843 20.0612 58.1777 20.4678 58.1777 20.9694V22.0686H57.0799C56.5782 22.0686 56.1717 22.4751 56.1717 22.9768V25.9847C56.1717 26.0371 56.1291 26.0796 56.0768 26.0796H49.0553C48.5536 26.0796 48.1471 26.4861 48.1471 26.9878V28.0856H47.0492C46.5475 28.0856 46.141 28.4921 46.141 28.9938C46.141 29.4955 46.5475 29.902 47.0492 29.902H48.1471V31C48.1471 31.5017 48.5536 31.9082 49.0553 31.9082H56.0767C56.1291 31.9082 56.1716 31.9508 56.1716 32.003V48.0519C56.1716 48.1043 56.129 48.1468 56.0767 48.1468H38.0216C37.9693 48.1468 37.9268 48.1041 37.9268 48.0519V43.0367C37.9268 42.535 37.5202 42.1285 37.0186 42.1285H35.9207V41.0307C35.9207 40.529 35.5142 40.1225 35.0125 40.1225C34.5108 40.1225 34.1043 40.529 34.1043 41.0307V42.1285H33.0064C32.5047 42.1285 32.0982 42.535 32.0982 43.0367V48.0521C32.0982 48.1044 32.0555 48.1469 32.0033 48.1469H13.9483C13.8959 48.1469 13.8534 48.1042 13.8534 48.0521V32.003C13.8534 31.9507 13.8961 31.9082 13.9483 31.9082H32.0033C32.0556 31.9082 32.0982 31.9508 32.0982 32.003V35.0122C32.0982 35.5139 32.5047 35.9204 33.0064 35.9204H34.1043V37.0184C34.1043 37.5201 34.5108 37.9266 35.0125 37.9266C35.5142 37.9266 35.9207 37.5201 35.9207 37.0184V35.9204H37.0186C37.5202 35.9204 37.9268 35.5139 37.9268 35.0122V32.003C37.9268 31.9507 37.9694 31.9082 38.0216 31.9082H41.0308C41.5324 31.9082 41.939 31.5017 41.939 31V29.9022H43.0369C43.5386 29.9022 43.9451 29.4957 43.9451 28.994C43.9451 28.4923 43.5386 28.0858 43.0369 28.0858H41.939V26.9879C41.939 26.4862 41.5324 26.0797 41.0308 26.0797H38.0216C37.9693 26.0797 37.9268 26.0371 37.9268 25.9848V22.9756C37.9268 22.4739 37.5202 22.0674 37.0186 22.0674H35.9207V20.9696C35.9207 20.4679 35.5142 20.0614 35.0125 20.0614C34.5108 20.0614 34.1043 20.4679 34.1043 20.9696V22.0674H33.0064C32.5047 22.0674 32.0982 22.4739 32.0982 22.9756V25.9848C32.0982 26.0372 32.0555 26.0797 32.0033 26.0797H23.0443C22.5426 26.0797 22.1361 26.4862 22.1361 26.9879C22.1361 27.4896 22.5426 27.8961 23.0443 27.8961H32.0032C33.0571 27.8961 33.9144 27.0387 33.9144 25.9848V23.8838H36.1104V25.9848C36.1104 27.0387 36.9677 27.8961 38.0216 27.8961H40.1226V30.0918H38.0216C36.9677 30.0918 36.1104 30.9491 36.1104 32.003V34.104H33.9144V32.003C33.9144 30.9491 33.0571 30.0918 32.0032 30.0918H13.9481C12.8943 30.0918 12.0369 30.9491 12.0369 32.003V48.0519C12.0369 49.1058 12.8943 49.9632 13.9481 49.9632H32.0032C33.0571 49.9632 33.9144 49.1058 33.9144 48.0519V43.9449H36.1104V48.0521C36.1104 49.1059 36.9677 49.9633 38.0216 49.9633H56.0767C57.1305 49.9633 57.988 49.1059 57.988 48.0521V32.003C57.988 30.9491 57.1305 30.0918 56.0767 30.0918H49.9635V27.896H56.0767C57.1305 27.896 57.988 27.0385 57.988 25.9847V23.885H60.1838V52.0643C60.1838 52.1166 60.1412 52.1591 60.089 52.1591H9.93594C9.88363 52.1591 9.84112 52.1165 9.84112 52.0643V1.91122C9.84112 1.85891 9.88375 1.81641 9.93594 1.81641H49.245C49.7467 1.81641 50.1532 1.40989 50.1532 0.908203C50.1532 0.406512 49.7467 0 49.245 0H9.93594C9.72741 0 9.52713 0.0347539 9.33907 0.0967539C9.21676 0.0353594 9.07908 0 8.93292 0H6.92676C6.42507 0 6.01855 0.406512 6.01855 0.908203C6.01855 1.40989 6.42507 1.81641 6.92676 1.81641H8.02944C8.02786 1.84801 8.02459 1.87925 8.02459 1.91122V52.0643C8.02459 52.0962 8.02786 52.1275 8.02944 52.1591H6.92676C6.42507 52.1591 6.01855 52.5656 6.01855 53.0673C6.01855 53.569 6.42507 53.9755 6.92676 53.9755H8.02459V55.0733C8.02459 55.575 8.43111 55.9815 8.9328 55.9815C9.43449 55.9815 9.841 55.575 9.841 55.0733V53.9706C9.87261 53.9722 9.90385 53.9755 9.93582 53.9755H60.0889C60.1208 53.9755 60.1521 53.9722 60.1837 53.9706V55.0733C60.1837 55.575 60.5902 55.9815 61.0919 55.9815C61.5936 55.9815 62.0001 55.575 62.0001 55.0733V53.0673C62.0001 52.921 61.9647 52.7834 61.9033 52.661C61.9653 52.4729 62.0001 52.2727 62.0001 52.0641V22.9768C62.0002 22.4752 61.5937 22.0686 61.092 22.0686Z" fill="#CB8734" stroke="white" stroke-width="0.4" mask="url(#path-2-inside-1_162_2705)"/>
<path d="M60.1835 14.1447H60.2835V14.0447V1.91122C60.2835 1.80389 60.1963 1.71641 60.0887 1.71641H52.8775C52.4311 1.71641 52.0693 1.35467 52.0693 0.908203C52.0693 0.46174 52.4311 0.1 52.8775 0.1H59.9887H60.0887C61.0873 0.1 61.8999 0.912572 61.8998 1.91121V14.953C61.8998 15.3994 61.538 15.7612 61.0916 15.7612H59.9937H59.8937V15.8612V16.9571C59.8937 17.4036 59.532 17.7653 59.0855 17.7653C58.6391 17.7653 58.2773 17.4036 58.2773 16.9571V15.8612V15.7612H58.1773H57.0795C56.865 15.7612 56.6596 15.6761 56.5081 15.5246C56.3564 15.3728 56.2713 15.1673 56.2713 14.953V5.92354C56.2713 5.81609 56.1841 5.72861 56.0764 5.72861H38.0213C37.9139 5.72861 37.8265 5.81588 37.8265 5.92354V14.951C37.8265 15.3974 37.4647 15.7592 37.0183 15.7592H35.9204H35.8204V15.8592V16.9571C35.8204 17.4036 35.4587 17.7653 35.0122 17.7653C34.5658 17.7653 34.204 17.4036 34.204 16.9571V15.8592V15.7592H34.104H33.0061C32.5596 15.7592 32.1979 15.3974 32.1979 14.951V5.92354C32.1979 5.81617 32.1108 5.72861 32.003 5.72861H13.948C13.8405 5.72861 13.7531 5.81588 13.7531 5.92354V25.9847C13.7531 26.092 13.8403 26.1796 13.948 26.1796H19.4112C19.8577 26.1796 20.2194 26.5413 20.2194 26.9878C20.2194 27.4343 19.8577 27.796 19.4112 27.796H13.9478C12.9492 27.796 12.1366 26.9833 12.1366 25.9847V5.92354C12.1366 4.92488 12.9492 4.1122 13.9478 4.1122H32.0029C33.0016 4.1122 33.8141 4.92488 33.8141 5.92354V14.0428V14.1428H33.9141H36.1101H36.2101V14.0428V5.92354C36.2101 4.92488 37.0226 4.1122 38.0213 4.1122H56.0764C57.075 4.1122 57.8877 4.92489 57.8877 5.92354V14.0448V14.1448L57.9877 14.1448L59.0469 14.1447V14.1448L59.0507 14.1446C59.059 14.1443 59.0677 14.1437 59.0728 14.1433C59.0789 14.1429 59.0826 14.1428 59.0857 14.1428C59.0887 14.1428 59.0924 14.1429 59.0984 14.1433C59.1035 14.1437 59.1122 14.1443 59.1206 14.1446L59.1206 14.1447H59.1243H60.1835Z" fill="#CB8734" stroke="white" stroke-width="0.2"/>
<path d="M56.1712 58.2774H56.2712V58.1774V57.0796C56.2712 56.6331 56.6329 56.2714 57.0794 56.2714C57.5258 56.2714 57.8876 56.6332 57.8877 57.0796V61.0919C57.8877 61.5384 57.526 61.9001 57.0795 61.9001C56.633 61.9001 56.2713 61.5384 56.2713 61.0919V59.994V59.894H56.1713H13.853H13.753V59.994V61.0919C13.753 61.5384 13.3913 61.9001 12.9448 61.9001C12.4984 61.9001 12.1366 61.5384 12.1366 61.0919V57.0797C12.1366 56.6332 12.4984 56.2715 12.9448 56.2715C13.3913 56.2715 13.753 56.6332 13.753 57.0797V58.1774V58.2774H13.853H56.1712Z" fill="#CB8734" stroke="white" stroke-width="0.2"/>
<path d="M3.72269 48.1469V48.2469H3.82269H4.92052C5.36699 48.2469 5.72873 48.6086 5.72873 49.0551C5.72873 49.5015 5.36699 49.8633 4.92052 49.8633H0.908203C0.46174 49.8633 0.1 49.5015 0.1 49.0551C0.1 48.6086 0.46174 48.2469 0.908203 48.2469H2.00616H2.10616V48.1469V5.82861V5.72861H2.00616H0.908203C0.46174 5.72861 0.1 5.36687 0.1 4.92041C0.1 4.47395 0.46174 4.11221 0.908203 4.11221H4.9204C5.36687 4.11221 5.72861 4.47395 5.72861 4.92041C5.72861 5.36687 5.36687 5.72861 4.9204 5.72861H3.82269H3.72269V5.82861V48.1469Z" fill="#CB8734" stroke="white" stroke-width="0.2"/>
</svg>
