<svg width="62" height="62" viewBox="0 0 62 62" fill="none" xmlns="http://www.w3.org/2000/svg">
<rect opacity="0.58" width="62" height="62" fill="white"/>
<mask id="path-2-inside-1_162_2697" fill="white">
<path d="M57.4415 29.7964V20.4724C57.4415 19.9707 57.0349 19.5642 56.5332 19.5642C56.0316 19.5642 55.625 19.9707 55.625 20.4724V28.2264C54.4239 27.6223 52.9949 27.5261 51.6904 28.0095V23.2508C51.6904 18.881 48.1353 15.326 43.7655 15.326H17.5833C13.2135 15.326 9.65843 18.881 9.65843 23.2508V28.0095C8.32665 27.5161 6.89629 27.6367 5.72374 28.2264V5.78246H55.625V16.2342C55.625 16.7359 56.0316 17.1424 56.5332 17.1424C57.0349 17.1424 57.4415 16.7359 57.4415 16.2342C57.4415 13.4169 57.4415 5.50213 57.4415 2.48702C57.4415 1.11563 56.3258 0 54.9546 0H6.39424C5.02297 0 3.90734 1.11563 3.90734 2.4869V29.7962C2.69834 31.5042 2.69677 33.7822 3.90734 35.4924V44.9379C3.90734 46.3092 5.02297 47.4248 6.39424 47.4248H7.64307C7.70992 47.5066 7.78318 47.5825 7.86007 47.6549V49.8871C6.75679 50.0335 5.90187 50.9782 5.90187 52.1208V53.6366C5.90187 54.8001 6.78779 55.7607 7.9205 55.8795V59.4403C7.9205 60.8517 9.06871 62 10.4802 62H17.7878C19.1991 62 20.3475 60.8518 20.3475 59.4403V55.8922H24.1201C24.5148 56.2306 25.0262 56.4365 25.5855 56.4365H28.5553C29.057 56.4365 29.4635 56.03 29.4635 55.5283C29.4635 55.0266 29.057 54.6201 28.5553 54.6201H25.5855C25.3368 54.6201 25.1463 54.4036 25.1463 54.1809V51.5765C25.1463 51.3445 25.345 51.1373 25.5855 51.1373H35.7031C35.9676 51.1373 36.1131 51.2784 36.1829 51.4552C36.1877 51.4713 36.2029 51.5082 36.2029 51.5765V54.1809C36.2029 54.4028 36.0129 54.6201 35.7635 54.6201H32.7937C32.292 54.6201 31.8855 55.0266 31.8855 55.5283C31.8855 56.03 32.292 56.4365 32.7937 56.4365H35.7635C36.323 56.4365 36.8344 56.2306 37.229 55.8922H41.0017V59.4403C41.0017 60.8517 42.1498 62 43.5612 62H50.869C52.2803 62 53.4285 60.8518 53.4285 59.4403V55.8795C54.5612 55.7607 55.4473 54.8003 55.4473 53.6366V52.1208C55.4473 50.9782 54.5924 50.0335 53.4891 49.8871V47.6549C53.5659 47.5826 53.6391 47.5067 53.706 47.4249H54.9548C56.3261 47.4249 57.4417 46.3093 57.4417 44.938V35.4924C58.0119 34.6866 58.3484 33.7044 58.3484 32.6444C58.3482 31.5843 58.0117 30.602 57.4415 29.7964ZM53.1361 35.7575C52.8389 35.0391 52.3463 34.3702 51.6904 33.862V30.0352C53.7923 28.653 56.5318 30.1907 56.5318 32.6443C56.5318 34.481 54.9542 35.9163 53.1361 35.7575ZM37.9584 45.7371H23.3903C22.0585 45.7371 20.9751 46.8206 20.9751 48.1524V49.8652H9.67648V48.3141C19.8408 48.314 15.3137 48.314 16.7973 48.314C18.129 48.314 19.2125 47.2306 19.2125 45.8989V44.7267C19.2125 43.395 18.129 42.3115 16.7973 42.3115C15.466 42.3115 11.1843 42.3115 9.67648 42.3115V37.5358C9.67648 35.9484 10.9721 34.7024 12.5099 34.7024H48.8388C50.3949 34.7024 51.6723 35.9689 51.6723 37.5358V42.3115C50.2773 42.3115 46.2407 42.3115 44.5515 42.3115C43.2197 42.3115 42.1363 43.395 42.1363 44.7267V45.8989C42.1363 47.2306 43.2197 48.314 44.5515 48.314C45.4517 48.314 49.7485 48.3141 51.6723 48.3141V49.8652H40.3737V48.1524C40.3737 46.8206 39.2901 45.7371 37.9584 45.7371ZM4.81687 32.6444C4.81687 30.1879 7.55661 28.6524 9.65843 30.0353V33.8621C8.99944 34.3726 8.50913 35.0419 8.2127 35.7575C6.38188 35.9165 4.81687 34.4678 4.81687 32.6444ZM12.8346 44.1279H16.7971C17.1218 44.1279 17.3959 44.4022 17.3959 44.7267V45.8989C17.3959 46.2235 17.1217 46.4976 16.7971 46.4976H12.8346C12.8838 46.3058 12.9128 46.1059 12.9128 45.8989V44.7267C12.9128 44.5198 12.8839 44.3199 12.8346 44.1279ZM11.0964 44.7267V45.8989C11.0964 46.2231 10.8227 46.497 10.4987 46.4976H9.51312C9.18895 46.4976 8.91443 46.2204 8.91443 45.8989V44.7267C8.91443 44.4067 9.18786 44.1279 9.51312 44.1279H10.4976C10.8221 44.1279 11.0964 44.4022 11.0964 44.7267ZM46.7342 32.8859H45.383C45.2582 28.6446 41.7716 25.2321 37.5006 25.2321C33.2298 25.2321 29.7432 28.6446 29.6185 32.8859H14.6145V23.2508C14.6145 21.6137 15.9463 20.282 17.5834 20.282H43.7654C45.4026 20.282 46.7344 21.6137 46.7344 23.2508V32.8859H46.7342ZM34.5665 32.8859C34.6865 31.3717 35.9561 30.176 37.5005 30.176C39.045 30.176 40.3147 31.3717 40.4346 32.8859H34.5665ZM37.5006 28.3596C34.9541 28.3596 32.8682 30.3692 32.7456 32.8859H31.4335C31.5571 29.6461 34.2312 27.0485 37.5006 27.0485C40.7701 27.0485 43.4444 29.6461 43.5679 32.8859H42.2556C42.1332 30.3692 40.0471 28.3596 37.5006 28.3596ZM48.5141 46.4976H44.5515C44.2269 46.4976 43.9527 46.2233 43.9527 45.8989V44.7267C43.9527 44.4021 44.227 44.1279 44.5515 44.1279H48.5141C48.4649 44.3199 48.4358 44.5198 48.4358 44.7267V45.8989C48.436 46.106 48.4649 46.3058 48.5141 46.4976ZM50.2524 45.8989V44.7267C50.2524 44.4021 50.5266 44.1279 50.8512 44.1279H51.8355C52.1107 44.1279 52.3692 44.3329 52.4233 44.6203C52.4299 44.6551 52.4345 44.6904 52.4345 44.7267V45.8989C52.4345 46.2215 52.1586 46.4976 51.8357 46.4976H50.8502C50.5259 46.497 50.2524 46.2232 50.2524 45.8989ZM11.4748 23.2508C11.4748 19.8826 14.2151 17.1424 17.5833 17.1424H43.7654C47.1336 17.1424 49.8738 19.8826 49.8738 23.2508V33.0021C49.7865 32.9821 49.6031 32.9464 49.4205 32.9235C49.0428 32.8762 48.847 32.8875 48.5505 32.8859V23.2508C48.5505 20.6123 46.4038 18.4656 43.7651 18.4656H17.5833C14.9448 18.4656 12.798 20.6123 12.798 23.2508V32.8859C12.4148 32.8929 12.0455 32.8717 11.4747 33.0021C11.4748 31.0967 11.4748 25.0787 11.4748 23.2508ZM5.72374 2.4869C5.72374 2.1172 6.02454 1.8164 6.39424 1.8164H54.9546C55.3243 1.8164 55.625 2.1172 55.625 2.4869V3.96605H5.72374V2.4869ZM5.72374 44.938V37.0625C6.38503 37.395 7.1363 37.5745 7.86007 37.5863V42.9703C7.85862 42.9716 7.85729 42.9733 7.85583 42.9746C7.3843 43.4209 7.09803 44.0456 7.09803 44.7267V45.6084H6.39424C6.02454 45.6085 5.72374 45.3076 5.72374 44.938ZM7.71827 53.6366V52.1208C7.71827 51.8828 7.91941 51.6816 8.15748 51.6816C10.4616 51.6816 21.8316 51.6817 23.3298 51.6817V54.0758C19.525 54.0758 11.3514 54.0758 8.15748 54.0758C7.91941 54.0758 7.71827 53.8745 7.71827 53.6366ZM18.531 59.4402C18.531 59.8501 18.1976 60.1835 17.7877 60.1835H10.4801C10.0702 60.1835 9.73678 59.8501 9.73678 59.4402V55.892H18.5308V59.4402H18.531ZM25.5248 49.3209C24.9867 49.3209 24.4661 49.5188 24.0607 49.8652H22.7915V48.1524C22.7915 47.8277 23.0658 47.5535 23.3903 47.5535H37.9584C38.283 47.5535 38.5572 47.8278 38.5572 48.1524V49.8652H37.2288C36.5097 49.2486 35.7391 49.3274 35.7029 49.3209C34.4434 49.3209 26.8059 49.3209 25.5248 49.3209ZM51.6118 59.4402C51.6118 59.8501 51.2784 60.1835 50.8686 60.1835H43.5609C43.1511 60.1835 42.8177 59.8501 42.8177 59.4402V55.892H51.6116V59.4402H51.6118ZM53.6305 52.1208V53.6366C53.6305 53.8746 53.4294 54.0758 53.1913 54.0758C50.1184 54.0758 41.2687 54.0758 38.019 54.0758V51.6816H53.1913C53.4294 51.6816 53.6305 51.8828 53.6305 52.1208ZM55.625 44.938C55.625 45.3077 55.3243 45.6085 54.9546 45.6085H54.2508V44.7269C54.2508 44.037 53.9584 43.4153 53.4931 42.9748C53.4916 42.9733 53.4903 42.9716 53.4887 42.9703V37.5863C54.206 37.5746 54.9577 37.3979 55.625 37.0625V44.938Z"/>
</mask>
<path d="M57.4415 29.7964V20.4724C57.4415 19.9707 57.0349 19.5642 56.5332 19.5642C56.0316 19.5642 55.625 19.9707 55.625 20.4724V28.2264C54.4239 27.6223 52.9949 27.5261 51.6904 28.0095V23.2508C51.6904 18.881 48.1353 15.326 43.7655 15.326H17.5833C13.2135 15.326 9.65843 18.881 9.65843 23.2508V28.0095C8.32665 27.5161 6.89629 27.6367 5.72374 28.2264V5.78246H55.625V16.2342C55.625 16.7359 56.0316 17.1424 56.5332 17.1424C57.0349 17.1424 57.4415 16.7359 57.4415 16.2342C57.4415 13.4169 57.4415 5.50213 57.4415 2.48702C57.4415 1.11563 56.3258 0 54.9546 0H6.39424C5.02297 0 3.90734 1.11563 3.90734 2.4869V29.7962C2.69834 31.5042 2.69677 33.7822 3.90734 35.4924V44.9379C3.90734 46.3092 5.02297 47.4248 6.39424 47.4248H7.64307C7.70992 47.5066 7.78318 47.5825 7.86007 47.6549V49.8871C6.75679 50.0335 5.90187 50.9782 5.90187 52.1208V53.6366C5.90187 54.8001 6.78779 55.7607 7.9205 55.8795V59.4403C7.9205 60.8517 9.06871 62 10.4802 62H17.7878C19.1991 62 20.3475 60.8518 20.3475 59.4403V55.8922H24.1201C24.5148 56.2306 25.0262 56.4365 25.5855 56.4365H28.5553C29.057 56.4365 29.4635 56.03 29.4635 55.5283C29.4635 55.0266 29.057 54.6201 28.5553 54.6201H25.5855C25.3368 54.6201 25.1463 54.4036 25.1463 54.1809V51.5765C25.1463 51.3445 25.345 51.1373 25.5855 51.1373H35.7031C35.9676 51.1373 36.1131 51.2784 36.1829 51.4552C36.1877 51.4713 36.2029 51.5082 36.2029 51.5765V54.1809C36.2029 54.4028 36.0129 54.6201 35.7635 54.6201H32.7937C32.292 54.6201 31.8855 55.0266 31.8855 55.5283C31.8855 56.03 32.292 56.4365 32.7937 56.4365H35.7635C36.323 56.4365 36.8344 56.2306 37.229 55.8922H41.0017V59.4403C41.0017 60.8517 42.1498 62 43.5612 62H50.869C52.2803 62 53.4285 60.8518 53.4285 59.4403V55.8795C54.5612 55.7607 55.4473 54.8003 55.4473 53.6366V52.1208C55.4473 50.9782 54.5924 50.0335 53.4891 49.8871V47.6549C53.5659 47.5826 53.6391 47.5067 53.706 47.4249H54.9548C56.3261 47.4249 57.4417 46.3093 57.4417 44.938V35.4924C58.0119 34.6866 58.3484 33.7044 58.3484 32.6444C58.3482 31.5843 58.0117 30.602 57.4415 29.7964ZM53.1361 35.7575C52.8389 35.0391 52.3463 34.3702 51.6904 33.862V30.0352C53.7923 28.653 56.5318 30.1907 56.5318 32.6443C56.5318 34.481 54.9542 35.9163 53.1361 35.7575ZM37.9584 45.7371H23.3903C22.0585 45.7371 20.9751 46.8206 20.9751 48.1524V49.8652H9.67648V48.3141C19.8408 48.314 15.3137 48.314 16.7973 48.314C18.129 48.314 19.2125 47.2306 19.2125 45.8989V44.7267C19.2125 43.395 18.129 42.3115 16.7973 42.3115C15.466 42.3115 11.1843 42.3115 9.67648 42.3115V37.5358C9.67648 35.9484 10.9721 34.7024 12.5099 34.7024H48.8388C50.3949 34.7024 51.6723 35.9689 51.6723 37.5358V42.3115C50.2773 42.3115 46.2407 42.3115 44.5515 42.3115C43.2197 42.3115 42.1363 43.395 42.1363 44.7267V45.8989C42.1363 47.2306 43.2197 48.314 44.5515 48.314C45.4517 48.314 49.7485 48.3141 51.6723 48.3141V49.8652H40.3737V48.1524C40.3737 46.8206 39.2901 45.7371 37.9584 45.7371ZM4.81687 32.6444C4.81687 30.1879 7.55661 28.6524 9.65843 30.0353V33.8621C8.99944 34.3726 8.50913 35.0419 8.2127 35.7575C6.38188 35.9165 4.81687 34.4678 4.81687 32.6444ZM12.8346 44.1279H16.7971C17.1218 44.1279 17.3959 44.4022 17.3959 44.7267V45.8989C17.3959 46.2235 17.1217 46.4976 16.7971 46.4976H12.8346C12.8838 46.3058 12.9128 46.1059 12.9128 45.8989V44.7267C12.9128 44.5198 12.8839 44.3199 12.8346 44.1279ZM11.0964 44.7267V45.8989C11.0964 46.2231 10.8227 46.497 10.4987 46.4976H9.51312C9.18895 46.4976 8.91443 46.2204 8.91443 45.8989V44.7267C8.91443 44.4067 9.18786 44.1279 9.51312 44.1279H10.4976C10.8221 44.1279 11.0964 44.4022 11.0964 44.7267ZM46.7342 32.8859H45.383C45.2582 28.6446 41.7716 25.2321 37.5006 25.2321C33.2298 25.2321 29.7432 28.6446 29.6185 32.8859H14.6145V23.2508C14.6145 21.6137 15.9463 20.282 17.5834 20.282H43.7654C45.4026 20.282 46.7344 21.6137 46.7344 23.2508V32.8859H46.7342ZM34.5665 32.8859C34.6865 31.3717 35.9561 30.176 37.5005 30.176C39.045 30.176 40.3147 31.3717 40.4346 32.8859H34.5665ZM37.5006 28.3596C34.9541 28.3596 32.8682 30.3692 32.7456 32.8859H31.4335C31.5571 29.6461 34.2312 27.0485 37.5006 27.0485C40.7701 27.0485 43.4444 29.6461 43.5679 32.8859H42.2556C42.1332 30.3692 40.0471 28.3596 37.5006 28.3596ZM48.5141 46.4976H44.5515C44.2269 46.4976 43.9527 46.2233 43.9527 45.8989V44.7267C43.9527 44.4021 44.227 44.1279 44.5515 44.1279H48.5141C48.4649 44.3199 48.4358 44.5198 48.4358 44.7267V45.8989C48.436 46.106 48.4649 46.3058 48.5141 46.4976ZM50.2524 45.8989V44.7267C50.2524 44.4021 50.5266 44.1279 50.8512 44.1279H51.8355C52.1107 44.1279 52.3692 44.3329 52.4233 44.6203C52.4299 44.6551 52.4345 44.6904 52.4345 44.7267V45.8989C52.4345 46.2215 52.1586 46.4976 51.8357 46.4976H50.8502C50.5259 46.497 50.2524 46.2232 50.2524 45.8989ZM11.4748 23.2508C11.4748 19.8826 14.2151 17.1424 17.5833 17.1424H43.7654C47.1336 17.1424 49.8738 19.8826 49.8738 23.2508V33.0021C49.7865 32.9821 49.6031 32.9464 49.4205 32.9235C49.0428 32.8762 48.847 32.8875 48.5505 32.8859V23.2508C48.5505 20.6123 46.4038 18.4656 43.7651 18.4656H17.5833C14.9448 18.4656 12.798 20.6123 12.798 23.2508V32.8859C12.4148 32.8929 12.0455 32.8717 11.4747 33.0021C11.4748 31.0967 11.4748 25.0787 11.4748 23.2508ZM5.72374 2.4869C5.72374 2.1172 6.02454 1.8164 6.39424 1.8164H54.9546C55.3243 1.8164 55.625 2.1172 55.625 2.4869V3.96605H5.72374V2.4869ZM5.72374 44.938V37.0625C6.38503 37.395 7.1363 37.5745 7.86007 37.5863V42.9703C7.85862 42.9716 7.85729 42.9733 7.85583 42.9746C7.3843 43.4209 7.09803 44.0456 7.09803 44.7267V45.6084H6.39424C6.02454 45.6085 5.72374 45.3076 5.72374 44.938ZM7.71827 53.6366V52.1208C7.71827 51.8828 7.91941 51.6816 8.15748 51.6816C10.4616 51.6816 21.8316 51.6817 23.3298 51.6817V54.0758C19.525 54.0758 11.3514 54.0758 8.15748 54.0758C7.91941 54.0758 7.71827 53.8745 7.71827 53.6366ZM18.531 59.4402C18.531 59.8501 18.1976 60.1835 17.7877 60.1835H10.4801C10.0702 60.1835 9.73678 59.8501 9.73678 59.4402V55.892H18.5308V59.4402H18.531ZM25.5248 49.3209C24.9867 49.3209 24.4661 49.5188 24.0607 49.8652H22.7915V48.1524C22.7915 47.8277 23.0658 47.5535 23.3903 47.5535H37.9584C38.283 47.5535 38.5572 47.8278 38.5572 48.1524V49.8652H37.2288C36.5097 49.2486 35.7391 49.3274 35.7029 49.3209C34.4434 49.3209 26.8059 49.3209 25.5248 49.3209ZM51.6118 59.4402C51.6118 59.8501 51.2784 60.1835 50.8686 60.1835H43.5609C43.1511 60.1835 42.8177 59.8501 42.8177 59.4402V55.892H51.6116V59.4402H51.6118ZM53.6305 52.1208V53.6366C53.6305 53.8746 53.4294 54.0758 53.1913 54.0758C50.1184 54.0758 41.2687 54.0758 38.019 54.0758V51.6816H53.1913C53.4294 51.6816 53.6305 51.8828 53.6305 52.1208ZM55.625 44.938C55.625 45.3077 55.3243 45.6085 54.9546 45.6085H54.2508V44.7269C54.2508 44.037 53.9584 43.4153 53.4931 42.9748C53.4916 42.9733 53.4903 42.9716 53.4887 42.9703V37.5863C54.206 37.5746 54.9577 37.3979 55.625 37.0625V44.938Z" fill="#CB8734" stroke="white" stroke-width="0.2" mask="url(#path-2-inside-1_162_2697)"/>
</svg>
