<svg width="62" height="62" viewBox="0 0 62 62" fill="none" xmlns="http://www.w3.org/2000/svg">
<rect opacity="0.58" width="62" height="62" fill="white"/>
<path d="M52.8042 2.12755L52.928 1.96658H52.7249H13.4331C12.5844 1.96658 11.7705 2.30371 11.1704 2.9038C10.5703 3.50389 10.2332 4.31779 10.2332 5.16645V23.4216C10.2332 23.6691 10.1349 23.9065 9.95983 24.0815C9.7848 24.2566 9.54742 24.3549 9.29989 24.3549C9.05237 24.3549 8.81498 24.2566 8.63996 24.0815C8.46493 23.9065 8.3666 23.6691 8.3666 23.4216V5.16651C8.36823 3.82329 8.90254 2.53554 9.85234 1.58574C10.8022 0.635924 12.0899 0.101609 13.4332 0.0999999L56.8312 0.1C58.1744 0.101625 59.4622 0.635938 60.412 1.58574C61.3618 2.53556 61.8961 3.82333 61.8977 5.16657V9.29961C61.8977 9.54714 61.7994 9.78452 61.6243 9.95955C61.4493 10.1346 61.2119 10.2329 60.9644 10.2329H53.7314H53.6314V10.3329V16.9387C53.6314 17.1863 53.533 17.4236 53.358 17.5987C53.183 17.7737 52.9456 17.872 52.6981 17.872C52.4506 17.872 52.2132 17.7737 52.0381 17.5987C51.8631 17.4236 51.7648 17.1863 51.7648 16.9387V5.16679C51.7685 4.06712 52.1338 2.99919 52.8042 2.12755ZM59.9311 8.36632H60.0311V8.26632V5.16645C60.0311 4.31779 59.694 3.50389 59.0939 2.9038C58.4938 2.30371 57.6799 1.96658 56.8312 1.96658C55.9826 1.96658 55.1687 2.30371 54.5686 2.9038C53.9685 3.50389 53.6314 4.31779 53.6314 5.16645V8.26632V8.36632H53.7314H59.9311Z" fill="#CB8734" stroke="white" stroke-width="0.2"/>
<path d="M2.06707 55.6978H1.96707V55.7978V56.8311C1.96707 57.6798 2.3042 58.4937 2.90429 59.0938C3.50438 59.6939 4.31828 60.031 5.16694 60.031H44.432H44.6323L44.5119 59.8709C43.8529 58.9947 43.4972 57.9276 43.4987 56.8313V56.8311V55.7978V55.6978H43.3987H2.06707ZM52.0384 42.1102C52.2134 41.9351 52.4508 41.8368 52.6983 41.8368C52.9458 41.8368 53.1832 41.9351 53.3582 42.1102C53.5333 42.2852 53.6316 42.5226 53.6316 42.7701V56.831C53.63 58.1742 53.0957 59.462 52.1458 60.4118C51.196 61.3616 49.9083 61.896 48.565 61.8976H5.16706C3.82382 61.896 2.53605 61.3616 1.58623 60.4118C0.636412 59.462 0.102097 58.1742 0.100488 56.831L0.100488 54.7645C0.100488 54.517 0.198817 54.2796 0.373843 54.1046C0.548868 53.9296 0.786254 53.8313 1.03378 53.8313H44.432C44.6795 53.8313 44.9169 53.9296 45.0919 54.1046C45.2669 54.2796 45.3653 54.517 45.3653 54.7645V56.8311C45.3653 57.6798 45.7024 58.4937 46.3025 59.0938C46.9026 59.6939 47.7165 60.031 48.5651 60.031C49.4138 60.031 50.2277 59.6939 50.8278 59.0938C51.4279 58.4937 51.765 57.6798 51.765 56.8311V42.7701C51.765 42.5226 51.8633 42.2852 52.0384 42.1102Z" fill="#CB8734" stroke="white" stroke-width="0.2"/>
<path d="M1.03352 35.0319H1.0335C0.833182 35.0319 0.638165 34.9675 0.477277 34.8482C0.316389 34.7288 0.198167 34.5609 0.140088 34.3692C0.0820091 34.1775 0.0871548 33.9722 0.154764 33.7836C0.222374 33.595 0.348859 33.4332 0.515523 33.3221L12.915 25.0558L12.915 25.0558C13.0684 24.9534 13.2486 24.8988 13.433 24.8988C13.6174 24.8988 13.7976 24.9534 13.951 25.0558L13.951 25.0558L26.3505 33.3221C26.5172 33.4332 26.6436 33.595 26.7112 33.7836C26.7789 33.9722 26.784 34.1775 26.7259 34.3692C26.6678 34.5609 26.5496 34.7288 26.3887 34.8482C26.2278 34.9675 26.0328 35.0319 25.8325 35.0319H22.7326H22.6326V35.1319V48.5647C22.6326 48.8122 22.5343 49.0496 22.3593 49.2246C22.1842 49.3996 21.9469 49.498 21.6993 49.498H5.16668C4.91916 49.498 4.68177 49.3996 4.50675 49.2246C4.33172 49.0496 4.23339 48.8122 4.23339 48.5647V38.2318C4.23339 37.9842 4.33172 37.7468 4.50675 37.5718C4.68177 37.3968 4.91916 37.2985 5.16668 37.2985C5.41421 37.2985 5.65159 37.3968 5.82662 37.5718C6.00165 37.7468 6.09997 37.9842 6.09997 38.2318V47.5314V47.6314H6.19997H9.29984H9.39984V47.5314V42.3649C9.39984 41.5693 9.7159 40.8063 10.2785 40.2437C10.8411 39.6811 11.6041 39.365 12.3997 39.365H14.4663C15.2619 39.365 16.0249 39.6811 16.5875 40.2437C17.1501 40.8063 17.4662 41.5693 17.4662 42.3649V47.5314V47.6314H17.5662H20.666H20.766V47.5314V35.1319V35.0319H20.666H1.03352ZM11.2664 47.5314V47.6314H11.3664H15.4996H15.5996V47.5314V42.3649C15.5996 42.0644 15.4802 41.7761 15.2677 41.5636C15.0551 41.351 14.7669 41.2316 14.4663 41.2316H12.3997C12.0991 41.2316 11.8109 41.351 11.5984 41.5636C11.3858 41.7761 11.2664 42.0644 11.2664 42.3649V47.5314ZM13.4885 26.989L13.433 26.952L13.3775 26.989L4.38791 32.9821L4.1131 33.1653H4.44338H22.4226H22.7529L22.4781 32.9821L13.4885 26.989Z" fill="#CB8734" stroke="white" stroke-width="0.2"/>
<path d="M60.3977 15.9993L60.3977 15.9994C60.7393 16.1962 61.0388 16.4584 61.279 16.771C61.5191 17.0837 61.6953 17.4405 61.7975 17.8213C61.8996 18.2021 61.9258 18.5992 61.8743 18.9901C61.8229 19.381 61.6949 19.7578 61.4977 20.0992L61.4977 20.0993L59.9477 22.7858L59.8978 22.8723L59.9843 22.9223C60.0905 22.9838 60.1836 23.0656 60.2582 23.163C60.3328 23.2605 60.3874 23.3717 60.4189 23.4903C60.4505 23.6089 60.4583 23.7325 60.4421 23.8541C60.4258 23.9758 60.3857 24.093 60.324 24.1991L60.3239 24.1994L58.7739 26.8859L58.724 26.9725L58.8105 27.0225L59.7054 27.5391L59.7059 27.5395C59.8129 27.6003 59.9068 27.6817 59.9823 27.779C60.0577 27.8762 60.1131 27.9875 60.1453 28.1063C60.1776 28.225 60.186 28.349 60.1702 28.4711C60.1543 28.5931 60.1144 28.7108 60.0529 28.8174C59.9914 28.924 59.9093 29.0174 59.8116 29.0922C59.7138 29.1669 59.6022 29.2216 59.4832 29.2531C59.3642 29.2845 59.2402 29.2921 59.1182 29.2755C58.9963 29.2588 58.8788 29.2182 58.7727 29.1559L58.7721 29.1556L57.8772 28.6389L57.7905 28.5889L57.7406 28.6756L55.4292 32.6899C55.3054 32.9044 55.1015 33.0609 54.8623 33.1251C54.6231 33.1892 54.3683 33.1557 54.1538 33.032C53.9393 32.9082 53.7827 32.7043 53.7186 32.4651C53.6544 32.2259 53.6879 31.9711 53.8117 31.7566C53.8117 31.7566 53.8117 31.7566 53.8117 31.7566L56.1314 27.7392L56.1814 27.6526L56.0948 27.6026L52.5166 25.536L52.4299 25.486L52.3799 25.5726L43.0803 41.6795L43.0303 41.7661L43.1169 41.8161L44.9066 42.8494L46.6962 43.8827L46.7829 43.9327L46.8329 43.8461L51.7451 35.3359L51.6585 35.2859L51.7451 35.3359C51.8689 35.1214 52.0728 34.9648 52.312 34.9007C52.5512 34.8365 52.806 34.87 53.0205 34.9938C53.235 35.1176 53.3915 35.3215 53.4557 35.5607C53.5198 35.7998 53.4864 36.0547 53.3626 36.2692C53.3626 36.2692 53.3626 36.2692 53.3626 36.2692L47.9327 45.6721L47.9326 45.6722C47.9299 45.6769 47.9256 45.6826 47.9161 45.6937C47.9151 45.6949 47.9141 45.6961 47.9129 45.6975C47.9045 45.7072 47.8919 45.7219 47.8808 45.7382L47.88 45.7393C47.8546 45.7778 47.8262 45.8142 47.7951 45.8482C47.7695 45.8737 47.7421 45.8974 47.7132 45.9191L47.7127 45.9184L47.7029 45.928C47.6818 45.949 47.6591 45.9685 47.6353 45.9864L44.6411 47.9615L44.6409 47.9616C44.2168 48.243 43.7195 48.3939 43.2106 48.3955C43.1 48.3877 42.9901 48.3732 42.8813 48.3519L42.8112 48.3382L42.7755 48.4L42.1452 49.4912L42.1452 49.4912C42.0214 49.7057 41.8175 49.8622 41.5783 49.9264C41.3391 49.9905 41.0843 49.957 40.8698 49.8333C40.6553 49.7095 40.4988 49.5056 40.4346 49.2664C40.3705 49.0272 40.404 48.7723 40.5277 48.5579L41.159 47.4647L41.1928 47.4062L41.1512 47.353C40.7674 46.8634 40.5735 46.2516 40.605 45.6304C40.605 45.6303 40.605 45.6302 40.605 45.6301L40.8093 42.0615C40.8093 42.0613 40.8094 42.061 40.8095 42.0608C40.8109 42.0562 40.813 42.0493 40.8148 42.0406C40.8166 42.0319 40.8179 42.0226 40.8187 42.0123C40.819 42.0097 40.8196 42.0065 40.8235 41.9913L40.8237 41.9905C40.8263 41.9803 40.8308 41.9623 40.8321 41.9413C40.8498 41.851 40.8808 41.7637 40.9241 41.6824L40.9241 41.6825L40.9253 41.6802C40.9305 41.6698 40.9336 41.6603 40.9356 41.6536C40.9371 41.6481 40.9385 41.6425 40.9391 41.6397L40.9392 41.6393L50.7521 24.6434L50.8021 24.5568L50.7155 24.5068L49.8207 23.9902C49.8207 23.9902 49.8207 23.9902 49.8207 23.9902C49.5605 23.8398 49.2513 23.7989 48.961 23.8765C48.6707 23.9541 48.4231 24.1437 48.2727 24.4038L48.2726 24.4039L44.1394 31.5636L44.1394 31.5636C44.0157 31.7781 43.8118 31.9346 43.5726 31.9988C43.3334 32.0629 43.0785 32.0294 42.864 31.9057C42.6495 31.7819 42.493 31.578 42.4289 31.3388C42.3647 31.0996 42.3982 30.8448 42.522 30.6303C42.522 30.6303 42.522 30.6303 42.522 30.6303L46.6551 23.4706L46.6552 23.4706C46.852 23.129 47.1142 22.8295 47.4268 22.5893C47.7394 22.3492 48.0963 22.173 48.4771 22.0708C48.8579 21.9686 49.255 21.9425 49.6459 21.994C50.0367 22.0454 50.4136 22.1734 50.755 22.3706L50.755 22.3706L51.6498 22.8873L51.7365 22.9373L51.7865 22.8506L53.3364 20.1641C53.3364 20.1641 53.3364 20.1641 53.3364 20.1641C53.4602 19.9497 53.664 19.7933 53.9031 19.7293C54.1422 19.6652 54.3969 19.6988 54.6112 19.8225L54.6979 19.8725L54.7479 19.7859L56.2978 17.0993L56.2978 17.0993C56.4946 16.7577 56.7569 16.4583 57.0695 16.2181C57.3821 15.9779 57.739 15.8017 58.1198 15.6995C58.5005 15.5974 58.8977 15.5713 59.2885 15.6227C59.6794 15.6742 60.0563 15.8021 60.3977 15.9993ZM43.6073 46.404L43.6074 46.4039L45.21 45.3479L45.3453 45.2587L45.2049 45.1777L42.7281 43.7497L42.5881 43.669L42.5784 43.8303L42.4626 45.7419L42.4626 45.742C42.4545 45.879 42.4846 46.0155 42.5496 46.1363C42.6146 46.2572 42.7119 46.3576 42.8307 46.4262C42.9494 46.4949 43.085 46.5292 43.2221 46.5253C43.3593 46.5214 43.4926 46.4793 43.6073 46.404ZM57.9153 18.0326L57.9153 18.0327L56.3643 20.7192L56.3143 20.8058L56.4009 20.8558L57.2968 21.3725L57.2968 21.3725L58.1916 21.8891L58.2782 21.9391L58.3282 21.8525L59.8782 19.1659L59.8782 19.1659C60.0281 18.9057 60.0686 18.5966 59.9909 18.3066C59.9131 18.0165 59.7234 17.7692 59.4634 17.6189L59.4133 17.7055L59.4634 17.6189C59.2032 17.4685 58.894 17.4277 58.6037 17.5052C58.3134 17.5828 58.0658 17.7725 57.9153 18.0326ZM53.405 23.7808L53.355 23.8674L53.4416 23.9174L57.0198 25.984L57.1064 26.034L57.1564 25.9474L58.1897 24.1578L58.2397 24.0712L58.1531 24.0212L54.5749 21.9546L54.4883 21.9046L54.4383 21.9912L53.405 23.7808Z" fill="#CB8734" stroke="white" stroke-width="0.2"/>
<path d="M39.2652 10.4329H39.3652V10.3329V8.26629V8.16629H39.2652H22.7326H22.6326V8.26629V10.3329V10.4329H22.7326H39.2652ZM41.2318 7.233V11.3662C41.2318 11.6137 41.1335 11.8511 40.9585 12.0261C40.7834 12.2011 40.5461 12.2994 40.2985 12.2994H21.6993C21.4518 12.2994 21.2144 12.2011 21.0394 12.0261C20.8643 11.8511 20.766 11.6137 20.766 11.3662V7.233C20.766 6.98547 20.8643 6.74809 21.0394 6.57306C21.2144 6.39804 21.4518 6.29971 21.6993 6.29971H40.2985C40.5461 6.29971 40.7834 6.39804 40.9585 6.57306C41.1335 6.74809 41.2318 6.98547 41.2318 7.233Z" fill="#CB8734" stroke="white" stroke-width="0.2"/>
<path d="M40.2985 19.9666H21.6993C21.4518 19.9666 21.2144 19.8683 21.0394 19.6932C20.8643 19.5182 20.766 19.2808 20.766 19.0333C20.766 18.7858 20.8643 18.5484 21.0394 18.3734C21.2144 18.1983 21.4518 18.1 21.6993 18.1H40.2985C40.5461 18.1 40.7834 18.1983 40.9585 18.3734C41.1335 18.5484 41.2318 18.7858 41.2318 19.0333C41.2318 19.2808 41.1335 19.5182 40.9585 19.6932C40.7834 19.8683 40.5461 19.9666 40.2985 19.9666Z" fill="#CB8734" stroke="white" stroke-width="0.2"/>
<path d="M41.3318 25.9666H21.6993C21.4518 25.9666 21.2144 25.8683 21.0394 25.6932C20.8643 25.5182 20.766 25.2808 20.766 25.0333C20.766 24.7858 20.8643 24.5484 21.0394 24.3734C21.2144 24.1983 21.4518 24.1 21.6993 24.1H41.3318C41.5793 24.1 41.8167 24.1983 41.9918 24.3734C42.1668 24.5484 42.2651 24.7858 42.2651 25.0333C42.2651 25.2808 42.1668 25.5182 41.9918 25.6932C41.8167 25.8683 41.5793 25.9666 41.3318 25.9666Z" fill="#CB8734" stroke="white" stroke-width="0.2"/>
<path d="M29.9659 31.0985H39.2655C39.513 31.0985 39.7504 31.1969 39.9255 31.3719C40.1005 31.5469 40.1988 31.7843 40.1988 32.0318C40.1988 32.2793 40.1005 32.5167 39.9255 32.6918C39.7504 32.8668 39.513 32.9651 39.2655 32.9651H29.9659C29.7184 32.9651 29.481 32.8668 29.306 32.6918C29.1309 32.5167 29.0326 32.2793 29.0326 32.0318C29.0326 31.7843 29.1309 31.5469 29.306 31.3719C29.481 31.1969 29.7184 31.0985 29.9659 31.0985Z" fill="#CB8734" stroke="white" stroke-width="0.2"/>
<path d="M39.9253 37.5716C40.1003 37.7466 40.1987 37.984 40.1987 38.2315C40.1987 38.4791 40.1003 38.7164 39.9253 38.8915C39.7503 39.0665 39.5129 39.1648 39.2654 39.1648H25.8326C25.5851 39.1648 25.3477 39.0665 25.1727 38.8915C24.9976 38.7164 24.8993 38.4791 24.8993 38.2315C24.8993 37.984 24.9976 37.7466 25.1727 37.5716C25.3477 37.3966 25.5851 37.2982 25.8326 37.2982H39.2654C39.5129 37.2982 39.7503 37.3966 39.9253 37.5716Z" fill="#CB8734" stroke="white" stroke-width="0.2"/>
<path d="M27.2391 44.3734C27.4141 44.1983 27.6515 44.1 27.899 44.1H35.132C35.3796 44.1 35.617 44.1983 35.792 44.3734C35.967 44.5484 36.0653 44.7858 36.0653 45.0333C36.0653 45.2808 35.967 45.5182 35.792 45.6932C35.617 45.8683 35.3796 45.9666 35.132 45.9666H27.899C27.6515 45.9666 27.4141 45.8683 27.2391 45.6932C27.0641 45.5182 26.9657 45.2808 26.9657 45.0333C26.9657 44.7858 27.0641 44.5484 27.2391 44.3734Z" fill="#CB8734" stroke="white" stroke-width="0.2"/>
</svg>
